<svg xmlns="http://www.w3.org/2000/svg" xmlns:xlink="http://www.w3.org/1999/xlink" contentStyleType="text/css" height="289px" preserveAspectRatio="none" style="width:354px;height:289px;background:#FFFFFF;" version="1.1" viewBox="0 0 354 289" width="354px" zoomAndPan="magnify"><defs/><g><text fill="#000000" font-family="sans-serif" font-size="14" font-weight="bold" lengthAdjust="spacing" textLength="222" x="59" y="22.9951">ArgumentJSON UML Diagram</text><!--class ArgumentJSON--><g id="elem_ArgumentJSON"><rect codeLine="3" fill="#F1F1F1" height="80.5938" id="ArgumentJSON" rx="2.5" ry="2.5" style="stroke:#181818;stroke-width:0.5;" width="340" x="7" y="44.2969"/><ellipse cx="122.25" cy="60.2969" fill="#ADD1B2" rx="11" ry="11" style="stroke:#181818;stroke-width:1.0;"/><path d="M125.2188,65.9375 Q124.6406,66.2344 124,66.375 Q123.3594,66.5313 122.6563,66.5313 Q120.1563,66.5313 118.8281,64.8906 Q117.5156,63.2344 117.5156,60.1094 Q117.5156,56.9844 118.8281,55.3281 Q120.1563,53.6719 122.6563,53.6719 Q123.3594,53.6719 124,53.8281 Q124.6563,53.9844 125.2188,54.2813 L125.2188,57 Q124.5938,56.4219 124,56.1563 Q123.4063,55.875 122.7813,55.875 Q121.4375,55.875 120.75,56.9531 Q120.0625,58.0156 120.0625,60.1094 Q120.0625,62.2031 120.75,63.2813 Q121.4375,64.3438 122.7813,64.3438 Q123.4063,64.3438 124,64.0781 Q124.5938,63.7969 125.2188,63.2188 L125.2188,65.9375 Z " fill="#000000"/><text fill="#000000" font-family="sans-serif" font-size="14" lengthAdjust="spacing" textLength="101" x="142.75" y="65.1436">ArgumentJSON</text><line style="stroke:#181818;stroke-width:0.5;" x1="8" x2="346" y1="76.2969" y2="76.2969"/><rect fill="none" height="6" style="stroke:#C82930;stroke-width:1.0;" width="6" x="15" y="86.9453"/><text fill="#000000" font-family="sans-serif" font-size="14" lengthAdjust="spacing" textLength="116" x="27" y="93.292">data_path: string</text><rect fill="none" height="6" style="stroke:#C82930;stroke-width:1.0;" width="6" x="15" y="103.2422"/><text fill="#000000" font-family="sans-serif" font-size="14" lengthAdjust="spacing" textLength="314" x="27" y="109.5889">custom_fields: List&lt;CustomField&gt; {optional}</text><line style="stroke:#181818;stroke-width:0.5;" x1="8" x2="346" y1="116.8906" y2="116.8906"/></g><!--class CustomField--><g id="elem_CustomField"><rect codeLine="8" fill="#F1F1F1" height="80.5938" id="CustomField" rx="2.5" ry="2.5" style="stroke:#181818;stroke-width:0.5;" width="132" x="111" y="201.8969"/><ellipse cx="132.3" cy="217.8969" fill="#ADD1B2" rx="11" ry="11" style="stroke:#181818;stroke-width:1.0;"/><path d="M135.2688,223.5375 Q134.6906,223.8344 134.05,223.975 Q133.4094,224.1313 132.7063,224.1313 Q130.2063,224.1313 128.8781,222.4906 Q127.5656,220.8344 127.5656,217.7094 Q127.5656,214.5844 128.8781,212.9281 Q130.2063,211.2719 132.7063,211.2719 Q133.4094,211.2719 134.05,211.4281 Q134.7063,211.5844 135.2688,211.8813 L135.2688,214.6 Q134.6438,214.0219 134.05,213.7563 Q133.4563,213.475 132.8313,213.475 Q131.4875,213.475 130.8,214.5531 Q130.1125,215.6156 130.1125,217.7094 Q130.1125,219.8031 130.8,220.8813 Q131.4875,221.9438 132.8313,221.9438 Q133.4563,221.9438 134.05,221.6781 Q134.6438,221.3969 135.2688,220.8188 L135.2688,223.5375 Z " fill="#000000"/><text fill="#000000" font-family="sans-serif" font-size="14" lengthAdjust="spacing" textLength="86" x="147.7" y="222.7436">CustomField</text><line style="stroke:#181818;stroke-width:0.5;" x1="112" x2="242" y1="233.8969" y2="233.8969"/><rect fill="none" height="6" style="stroke:#C82930;stroke-width:1.0;" width="6" x="119" y="244.5453"/><text fill="#000000" font-family="sans-serif" font-size="14" lengthAdjust="spacing" textLength="87" x="131" y="250.892">name: string</text><rect fill="none" height="6" style="stroke:#C82930;stroke-width:1.0;" width="6" x="119" y="260.8422"/><text fill="#000000" font-family="sans-serif" font-size="14" lengthAdjust="spacing" textLength="106" x="131" y="267.1889">property: string</text><line style="stroke:#181818;stroke-width:0.5;" x1="112" x2="242" y1="274.4906" y2="274.4906"/></g><!--reverse link ArgumentJSON to CustomField--><g id="link_ArgumentJSON_CustomField"><path codeLine="13" d="M177,137.2569 C177,160.6669 177,178.1969 177,201.5969 " fill="none" id="ArgumentJSON-backto-CustomField" style="stroke:#181818;stroke-width:1.0;"/><polygon fill="#181818" points="177,125.2569,173,131.2569,177,137.2569,181,131.2569,177,125.2569" style="stroke:#181818;stroke-width:1.0;"/><text fill="#000000" font-family="sans-serif" font-size="13" lengthAdjust="spacing" textLength="54" x="178" y="167.9638">contains</text><text fill="#000000" font-family="sans-serif" font-size="13" lengthAdjust="spacing" textLength="23" x="152.0953" y="190.7087">0..*</text></g><!--SRC=[NOvD2u9G44NtxrSCBWMbjKGGHOlGMaHh6VHb0- -BD-CYnF-UHKbsbsU6Sw-G60tRsFLMEpbUpYUuLYNi2Rk8Lgd68FFoFYYOaa6BWdL0kHV04ibr7zxqBDxMDzAcvG9AObdltkpmGXiOV13o3isenc_3pyDSuD3gFtU8FkWeZnbFWiMuDCiWMULvcYoK1JJU2PBZ9m00]--></g></svg>