<svg xmlns="http://www.w3.org/2000/svg" xmlns:xlink="http://www.w3.org/1999/xlink" contentStyleType="text/css" height="305px" preserveAspectRatio="none" style="width:483px;height:305px;background:#FFFFFF;" version="1.1" viewBox="0 0 483 305" width="483px" zoomAndPan="magnify"><defs/><g><text fill="#000000" font-family="sans-serif" font-size="14" font-weight="bold" lengthAdjust="spacing" textLength="317" x="76.25" y="22.9951">Browser Log JSON Schema UML Diagram</text><!--class BrowserLog--><g id="elem_BrowserLog"><rect codeLine="3" fill="#F1F1F1" height="113.1875" id="BrowserLog" rx="2.5" ry="2.5" style="stroke:#181818;stroke-width:0.5;" width="243" x="7" y="185.5869"/><ellipse cx="83.25" cy="201.5869" fill="#ADD1B2" rx="11" ry="11" style="stroke:#181818;stroke-width:1.0;"/><path d="M86.2188,207.2275 Q85.6406,207.5244 85,207.665 Q84.3594,207.8213 83.6563,207.8213 Q81.1563,207.8213 79.8281,206.1806 Q78.5156,204.5244 78.5156,201.3994 Q78.5156,198.2744 79.8281,196.6181 Q81.1563,194.9619 83.6563,194.9619 Q84.3594,194.9619 85,195.1181 Q85.6563,195.2744 86.2188,195.5713 L86.2188,198.29 Q85.5938,197.7119 85,197.4463 Q84.4063,197.165 83.7813,197.165 Q82.4375,197.165 81.75,198.2431 Q81.0625,199.3056 81.0625,201.3994 Q81.0625,203.4931 81.75,204.5713 Q82.4375,205.6338 83.7813,205.6338 Q84.4063,205.6338 85,205.3681 Q85.5938,205.0869 86.2188,204.5088 L86.2188,207.2275 Z " fill="#000000"/><text fill="#000000" font-family="sans-serif" font-size="14" lengthAdjust="spacing" textLength="82" x="103.75" y="206.4336">BrowserLog</text><line style="stroke:#181818;stroke-width:0.5;" x1="8" x2="249" y1="217.5869" y2="217.5869"/><rect fill="none" height="6" style="stroke:#C82930;stroke-width:1.0;" width="6" x="15" y="228.2353"/><text fill="#000000" font-family="sans-serif" font-size="14" lengthAdjust="spacing" textLength="209" x="27" y="234.582">timestamp: string «date-time»</text><rect fill="none" height="6" style="stroke:#C82930;stroke-width:1.0;" width="6" x="15" y="244.5322"/><text fill="#000000" font-family="sans-serif" font-size="14" lengthAdjust="spacing" textLength="217" x="27" y="250.8789">severity: string «SeverityEnum»</text><rect fill="none" height="6" style="stroke:#C82930;stroke-width:1.0;" width="6" x="15" y="260.8291"/><text fill="#000000" font-family="sans-serif" font-size="14" lengthAdjust="spacing" textLength="96" x="27" y="267.1757">source: string</text><rect fill="none" height="6" style="stroke:#C82930;stroke-width:1.0;" width="6" x="15" y="277.1259"/><text fill="#000000" font-family="sans-serif" font-size="14" lengthAdjust="spacing" textLength="112" x="27" y="283.4726">message: string</text><line style="stroke:#181818;stroke-width:0.5;" x1="8" x2="249" y1="290.7744" y2="290.7744"/></g><!--class SeverityEnum--><g id="elem_SeverityEnum"><rect codeLine="10" fill="#F1F1F1" height="80.5938" id="SeverityEnum" rx="2.5" ry="2.5" style="stroke:#181818;stroke-width:0.5;" width="126" x="350.5" y="201.8869"/><ellipse cx="365.5" cy="217.8869" fill="#EB937F" rx="11" ry="11" style="stroke:#181818;stroke-width:1.0;"/><path d="M369.6094,223.8869 L361.8906,223.8869 L361.8906,211.4963 L369.6094,211.4963 L369.6094,213.6525 L364.3438,213.6525 L364.3438,216.3244 L369.1094,216.3244 L369.1094,218.4806 L364.3438,218.4806 L364.3438,221.7306 L369.6094,221.7306 L369.6094,223.8869 Z " fill="#000000"/><text fill="#000000" font-family="sans-serif" font-size="14" lengthAdjust="spacing" textLength="94" x="379.5" y="222.7336">SeverityEnum</text><line style="stroke:#181818;stroke-width:0.5;" x1="351.5" x2="475.5" y1="233.8869" y2="233.8869"/><text fill="#000000" font-family="sans-serif" font-size="14" lengthAdjust="spacing" textLength="66" x="356.5" y="250.882">WARNING</text><text fill="#000000" font-family="sans-serif" font-size="14" lengthAdjust="spacing" textLength="32" x="356.5" y="267.1789">INFO</text><line style="stroke:#181818;stroke-width:0.5;" x1="351.5" x2="475.5" y1="274.4806" y2="274.4806"/></g><!--class BrowserLogArray--><g id="elem_BrowserLogArray"><rect codeLine="15" fill="#F1F1F1" height="64.2969" id="BrowserLogArray" rx="2.5" ry="2.5" style="stroke:#181818;stroke-width:0.5;" width="193" x="32" y="44.2969"/><ellipse cx="67.25" cy="60.2969" fill="#ADD1B2" rx="11" ry="11" style="stroke:#181818;stroke-width:1.0;"/><path d="M70.2188,65.9375 Q69.6406,66.2344 69,66.375 Q68.3594,66.5313 67.6563,66.5313 Q65.1563,66.5313 63.8281,64.8906 Q62.5156,63.2344 62.5156,60.1094 Q62.5156,56.9844 63.8281,55.3281 Q65.1563,53.6719 67.6563,53.6719 Q68.3594,53.6719 69,53.8281 Q69.6563,53.9844 70.2188,54.2813 L70.2188,57 Q69.5938,56.4219 69,56.1563 Q68.4063,55.875 67.7813,55.875 Q66.4375,55.875 65.75,56.9531 Q65.0625,58.0156 65.0625,60.1094 Q65.0625,62.2031 65.75,63.2813 Q66.4375,64.3438 67.7813,64.3438 Q68.4063,64.3438 69,64.0781 Q69.5938,63.7969 70.2188,63.2188 L70.2188,65.9375 Z " fill="#000000"/><text fill="#000000" font-family="sans-serif" font-size="14" lengthAdjust="spacing" textLength="116" x="85.75" y="65.1436">BrowserLogArray</text><line style="stroke:#181818;stroke-width:0.5;" x1="33" x2="224" y1="76.2969" y2="76.2969"/><rect fill="none" height="6" style="stroke:#C82930;stroke-width:1.0;" width="6" x="40" y="86.9453"/><text fill="#000000" font-family="sans-serif" font-size="14" lengthAdjust="spacing" textLength="167" x="52" y="93.292">logs: List&lt;BrowserLog&gt;</text><line style="stroke:#181818;stroke-width:0.5;" x1="33" x2="224" y1="100.5938" y2="100.5938"/></g><!--reverse link BrowserLogArray to BrowserLog--><g id="link_BrowserLogArray_BrowserLog"><path codeLine="19" d="M128.5,121.0169 C128.5,142.5769 128.5,159.7269 128.5,185.1769 " fill="none" id="BrowserLogArray-backto-BrowserLog" style="stroke:#181818;stroke-width:1.0;"/><polygon fill="#181818" points="128.5,109.0169,124.5,115.0169,128.5,121.0169,132.5,115.0169,128.5,109.0169" style="stroke:#181818;stroke-width:1.0;"/><text fill="#000000" font-family="sans-serif" font-size="13" lengthAdjust="spacing" textLength="54" x="129.5" y="151.6538">contains</text><text fill="#000000" font-family="sans-serif" font-size="13" lengthAdjust="spacing" textLength="23" x="104.0984" y="174.3905">0..*</text></g><!--link BrowserLog to SeverityEnum--><g id="link_BrowserLog_SeverityEnum"><path codeLine="20" d="M250.19,242.1869 C284.69,242.1869 320.84,242.1869 350.34,242.1869 " fill="none" id="BrowserLog-SeverityEnum" style="stroke:#181818;stroke-width:1.0;"/><text fill="#000000" font-family="sans-serif" font-size="13" lengthAdjust="spacing" textLength="64" x="268.25" y="235.2538">severity is</text></g><!--SRC=[NP11IyH038Nlyoj2ZmkpU2wbiA8kAxKB5l4SQfWDT3gIP9L5_E-sqjgwEOMNxoMF65j7S2lfKqcWIW4UcsCDJNkYYF3oLC4TOn2CphKTgixeI7uv6Cg3SIGrZEyvg0dt0OhY3OtyE2ZBYLBw866xhA1cakxxSrouT9QMPceIXmEAOL6_dQF11EiDKvxNtNDzgFU__Q5-E8xiTVIT25x-ydSfQ0uLgnKBKew-QyV6UyXkjjjDjlv33ctg3RdNbG6yS3YP_nynXsp-0x1cFm00]--></g></svg>