<svg xmlns="http://www.w3.org/2000/svg" xmlns:xlink="http://www.w3.org/1999/xlink" contentStyleType="text/css" height="370px" preserveAspectRatio="none" style="width:858px;height:370px;background:#FFFFFF;" version="1.1" viewBox="0 0 858 370" width="858px" zoomAndPan="magnify"><defs/><g><text fill="#000000" font-family="sans-serif" font-size="14" font-weight="bold" lengthAdjust="spacing" textLength="314" x="265.25" y="22.9951">Runtime Log JSON Schema UML Diagram</text><!--class Application--><g id="elem_Application"><rect codeLine="3" fill="#F1F1F1" height="113.1875" id="Application" rx="2.5" ry="2.5" style="stroke:#181818;stroke-width:0.5;" width="138" x="448.5" y="234.4869"/><ellipse cx="477.45" cy="250.4869" fill="#ADD1B2" rx="11" ry="11" style="stroke:#181818;stroke-width:1.0;"/><path d="M480.4188,256.1275 Q479.8406,256.4244 479.2,256.565 Q478.5594,256.7213 477.8563,256.7213 Q475.3563,256.7213 474.0281,255.0806 Q472.7156,253.4244 472.7156,250.2994 Q472.7156,247.1744 474.0281,245.5181 Q475.3563,243.8619 477.8563,243.8619 Q478.5594,243.8619 479.2,244.0181 Q479.8563,244.1744 480.4188,244.4713 L480.4188,247.19 Q479.7938,246.6119 479.2,246.3463 Q478.6063,246.065 477.9813,246.065 Q476.6375,246.065 475.95,247.1431 Q475.2625,248.2056 475.2625,250.2994 Q475.2625,252.3931 475.95,253.4713 Q476.6375,254.5338 477.9813,254.5338 Q478.6063,254.5338 479.2,254.2681 Q479.7938,253.9869 480.4188,253.4088 L480.4188,256.1275 Z " fill="#000000"/><text fill="#000000" font-family="sans-serif" font-size="14" lengthAdjust="spacing" textLength="75" x="494.55" y="255.3336">Application</text><line style="stroke:#181818;stroke-width:0.5;" x1="449.5" x2="585.5" y1="266.4869" y2="266.4869"/><rect fill="none" height="6" style="stroke:#C82930;stroke-width:1.0;" width="6" x="456.5" y="277.1353"/><text fill="#000000" font-family="sans-serif" font-size="14" lengthAdjust="spacing" textLength="87" x="468.5" y="283.482">name: string</text><rect fill="none" height="6" style="stroke:#C82930;stroke-width:1.0;" width="6" x="456.5" y="293.4322"/><text fill="#000000" font-family="sans-serif" font-size="14" lengthAdjust="spacing" textLength="98" x="468.5" y="299.7789">version: string</text><rect fill="none" height="6" style="stroke:#C82930;stroke-width:1.0;" width="6" x="456.5" y="309.7291"/><text fill="#000000" font-family="sans-serif" font-size="14" lengthAdjust="spacing" textLength="81" x="468.5" y="316.0757">build: string</text><rect fill="none" height="6" style="stroke:#C82930;stroke-width:1.0;" width="6" x="456.5" y="326.0259"/><text fill="#000000" font-family="sans-serif" font-size="14" lengthAdjust="spacing" textLength="112" x="468.5" y="332.3726">copyright: string</text><line style="stroke:#181818;stroke-width:0.5;" x1="449.5" x2="585.5" y1="339.6744" y2="339.6744"/></g><!--class System--><g id="elem_System"><rect codeLine="10" fill="#F1F1F1" height="145.7813" id="System" rx="2.5" ry="2.5" style="stroke:#181818;stroke-width:0.5;" width="230" x="621.5" y="218.1869"/><ellipse cx="706.75" cy="234.1869" fill="#ADD1B2" rx="11" ry="11" style="stroke:#181818;stroke-width:1.0;"/><path d="M709.7188,239.8275 Q709.1406,240.1244 708.5,240.265 Q707.8594,240.4213 707.1563,240.4213 Q704.6563,240.4213 703.3281,238.7806 Q702.0156,237.1244 702.0156,233.9994 Q702.0156,230.8744 703.3281,229.2181 Q704.6563,227.5619 707.1563,227.5619 Q707.8594,227.5619 708.5,227.7181 Q709.1563,227.8744 709.7188,228.1713 L709.7188,230.89 Q709.0938,230.3119 708.5,230.0463 Q707.9063,229.765 707.2813,229.765 Q705.9375,229.765 705.25,230.8431 Q704.5625,231.9056 704.5625,233.9994 Q704.5625,236.0931 705.25,237.1713 Q705.9375,238.2338 707.2813,238.2338 Q707.9063,238.2338 708.5,237.9681 Q709.0938,237.6869 709.7188,237.1088 L709.7188,239.8275 Z " fill="#000000"/><text fill="#000000" font-family="sans-serif" font-size="14" lengthAdjust="spacing" textLength="51" x="727.25" y="239.0336">System</text><line style="stroke:#181818;stroke-width:0.5;" x1="622.5" x2="850.5" y1="250.1869" y2="250.1869"/><rect fill="none" height="6" style="stroke:#C82930;stroke-width:1.0;" width="6" x="629.5" y="260.8353"/><text fill="#000000" font-family="sans-serif" font-size="14" lengthAdjust="spacing" textLength="204" x="641.5" y="267.182">start_time: string «date-time»</text><rect fill="none" height="6" style="stroke:#C82930;stroke-width:1.0;" width="6" x="629.5" y="277.1322"/><text fill="#000000" font-family="sans-serif" font-size="14" lengthAdjust="spacing" textLength="65" x="641.5" y="283.4789">os: string</text><rect fill="none" height="6" style="stroke:#C82930;stroke-width:1.0;" width="6" x="629.5" y="293.4291"/><text fill="#000000" font-family="sans-serif" font-size="14" lengthAdjust="spacing" textLength="115" x="641.5" y="299.7757">computer: string</text><rect fill="none" height="6" style="stroke:#C82930;stroke-width:1.0;" width="6" x="629.5" y="309.7259"/><text fill="#000000" font-family="sans-serif" font-size="14" lengthAdjust="spacing" textLength="91" x="641.5" y="316.0726">model: string</text><rect fill="none" height="6" style="stroke:#C82930;stroke-width:1.0;" width="6" x="629.5" y="326.0228"/><text fill="#000000" font-family="sans-serif" font-size="14" lengthAdjust="spacing" textLength="140" x="641.5" y="332.3695">manufacturer: string</text><rect fill="none" height="6" style="stroke:#C82930;stroke-width:1.0;" width="6" x="629.5" y="342.3197"/><text fill="#000000" font-family="sans-serif" font-size="14" lengthAdjust="spacing" textLength="120" x="641.5" y="348.6664">runtime_id: string</text><line style="stroke:#181818;stroke-width:0.5;" x1="622.5" x2="850.5" y1="355.9681" y2="355.9681"/></g><!--class LogEntry--><g id="elem_LogEntry"><rect codeLine="19" fill="#F1F1F1" height="113.1875" id="LogEntry" rx="2.5" ry="2.5" style="stroke:#181818;stroke-width:0.5;" width="235" x="7" y="234.4869"/><ellipse cx="90.25" cy="250.4869" fill="#ADD1B2" rx="11" ry="11" style="stroke:#181818;stroke-width:1.0;"/><path d="M93.2188,256.1275 Q92.6406,256.4244 92,256.565 Q91.3594,256.7213 90.6563,256.7213 Q88.1563,256.7213 86.8281,255.0806 Q85.5156,253.4244 85.5156,250.2994 Q85.5156,247.1744 86.8281,245.5181 Q88.1563,243.8619 90.6563,243.8619 Q91.3594,243.8619 92,244.0181 Q92.6563,244.1744 93.2188,244.4713 L93.2188,247.19 Q92.5938,246.6119 92,246.3463 Q91.4063,246.065 90.7813,246.065 Q89.4375,246.065 88.75,247.1431 Q88.0625,248.2056 88.0625,250.2994 Q88.0625,252.3931 88.75,253.4713 Q89.4375,254.5338 90.7813,254.5338 Q91.4063,254.5338 92,254.2681 Q92.5938,253.9869 93.2188,253.4088 L93.2188,256.1275 Z " fill="#000000"/><text fill="#000000" font-family="sans-serif" font-size="14" lengthAdjust="spacing" textLength="60" x="110.75" y="255.3336">LogEntry</text><line style="stroke:#181818;stroke-width:0.5;" x1="8" x2="241" y1="266.4869" y2="266.4869"/><rect fill="none" height="6" style="stroke:#C82930;stroke-width:1.0;" width="6" x="15" y="277.1353"/><text fill="#000000" font-family="sans-serif" font-size="14" lengthAdjust="spacing" textLength="209" x="27" y="283.482">timestamp: string «date-time»</text><rect fill="none" height="6" style="stroke:#C82930;stroke-width:1.0;" width="6" x="15" y="293.4322"/><text fill="#000000" font-family="sans-serif" font-size="14" lengthAdjust="spacing" textLength="93" x="27" y="299.7789">thread: string</text><rect fill="none" height="6" style="stroke:#C82930;stroke-width:1.0;" width="6" x="15" y="309.7291"/><text fill="#000000" font-family="sans-serif" font-size="14" lengthAdjust="spacing" textLength="161" x="27" y="316.0757">level: string «LogLevel»</text><rect fill="none" height="6" style="stroke:#C82930;stroke-width:1.0;" width="6" x="15" y="326.0259"/><text fill="#000000" font-family="sans-serif" font-size="14" lengthAdjust="spacing" textLength="112" x="27" y="332.3726">message: string</text><line style="stroke:#181818;stroke-width:0.5;" x1="8" x2="241" y1="339.6744" y2="339.6744"/></g><!--class RuntimeLog--><g id="elem_RuntimeLog"><rect codeLine="26" fill="#F1F1F1" height="96.8906" id="RuntimeLog" rx="2.5" ry="2.5" style="stroke:#181818;stroke-width:0.5;" width="184" x="425.5" y="44.2969"/><ellipse cx="471.75" cy="60.2969" fill="#ADD1B2" rx="11" ry="11" style="stroke:#181818;stroke-width:1.0;"/><path d="M474.7188,65.9375 Q474.1406,66.2344 473.5,66.375 Q472.8594,66.5313 472.1563,66.5313 Q469.6563,66.5313 468.3281,64.8906 Q467.0156,63.2344 467.0156,60.1094 Q467.0156,56.9844 468.3281,55.3281 Q469.6563,53.6719 472.1563,53.6719 Q472.8594,53.6719 473.5,53.8281 Q474.1563,53.9844 474.7188,54.2813 L474.7188,57 Q474.0938,56.4219 473.5,56.1563 Q472.9063,55.875 472.2813,55.875 Q470.9375,55.875 470.25,56.9531 Q469.5625,58.0156 469.5625,60.1094 Q469.5625,62.2031 470.25,63.2813 Q470.9375,64.3438 472.2813,64.3438 Q472.9063,64.3438 473.5,64.0781 Q474.0938,63.7969 474.7188,63.2188 L474.7188,65.9375 Z " fill="#000000"/><text fill="#000000" font-family="sans-serif" font-size="14" lengthAdjust="spacing" textLength="83" x="492.25" y="65.1436">RuntimeLog</text><line style="stroke:#181818;stroke-width:0.5;" x1="426.5" x2="608.5" y1="76.2969" y2="76.2969"/><rect fill="none" height="6" style="stroke:#C82930;stroke-width:1.0;" width="6" x="433.5" y="86.9453"/><text fill="#000000" font-family="sans-serif" font-size="14" lengthAdjust="spacing" textLength="158" x="445.5" y="93.292">application: Application</text><rect fill="none" height="6" style="stroke:#C82930;stroke-width:1.0;" width="6" x="433.5" y="103.2422"/><text fill="#000000" font-family="sans-serif" font-size="14" lengthAdjust="spacing" textLength="110" x="445.5" y="109.5889">system: System</text><rect fill="none" height="6" style="stroke:#C82930;stroke-width:1.0;" width="6" x="433.5" y="119.5391"/><text fill="#000000" font-family="sans-serif" font-size="14" lengthAdjust="spacing" textLength="145" x="445.5" y="125.8857">logs: List&lt;LogEntry&gt;</text><line style="stroke:#181818;stroke-width:0.5;" x1="426.5" x2="608.5" y1="133.1875" y2="133.1875"/></g><!--class LogLevel--><g id="elem_LogLevel"><rect codeLine="32" fill="#F1F1F1" height="96.8906" id="LogLevel" rx="2.5" ry="2.5" style="stroke:#181818;stroke-width:0.5;" width="92" x="321.5" y="242.6269"/><ellipse cx="336.5" cy="258.6269" fill="#EB937F" rx="11" ry="11" style="stroke:#181818;stroke-width:1.0;"/><path d="M340.6094,264.6269 L332.8906,264.6269 L332.8906,252.2363 L340.6094,252.2363 L340.6094,254.3925 L335.3438,254.3925 L335.3438,257.0644 L340.1094,257.0644 L340.1094,259.2206 L335.3438,259.2206 L335.3438,262.4706 L340.6094,262.4706 L340.6094,264.6269 Z " fill="#000000"/><text fill="#000000" font-family="sans-serif" font-size="14" lengthAdjust="spacing" textLength="60" x="350.5" y="263.4736">LogLevel</text><line style="stroke:#181818;stroke-width:0.5;" x1="322.5" x2="412.5" y1="274.6269" y2="274.6269"/><text fill="#000000" font-family="sans-serif" font-size="14" lengthAdjust="spacing" textLength="32" x="327.5" y="291.622">INFO</text><text fill="#000000" font-family="sans-serif" font-size="14" lengthAdjust="spacing" textLength="51" x="327.5" y="307.9189">DEBUG</text><text fill="#000000" font-family="sans-serif" font-size="14" lengthAdjust="spacing" textLength="50" x="327.5" y="324.2157">ERROR</text><line style="stroke:#181818;stroke-width:0.5;" x1="322.5" x2="412.5" y1="331.5175" y2="331.5175"/></g><!--reverse link RuntimeLog to Application--><g id="link_RuntimeLog_Application"><path codeLine="38" d="M517.5,153.5169 C517.5,181.4369 517.5,204.8269 517.5,234.0569 " fill="none" id="RuntimeLog-backto-Application" style="stroke:#181818;stroke-width:1.0;"/><polygon fill="#181818" points="517.5,141.5169,513.5,147.5169,517.5,153.5169,521.5,147.5169,517.5,141.5169" style="stroke:#181818;stroke-width:1.0;"/><text fill="#000000" font-family="sans-serif" font-size="13" lengthAdjust="spacing" textLength="54" x="518.5" y="184.2538">contains</text><text fill="#000000" font-family="sans-serif" font-size="13" lengthAdjust="spacing" textLength="8" x="509.0125" y="223.268">1</text></g><!--reverse link RuntimeLog to System--><g id="link_RuntimeLog_System"><path codeLine="39" d="M579.7255,149.5267 C605.3055,172.4567 627.56,192.4069 655.95,217.8569 " fill="none" id="RuntimeLog-backto-System" style="stroke:#181818;stroke-width:1.0;"/><polygon fill="#181818" points="570.79,141.5169,572.5878,148.5003,579.7255,149.5267,577.9277,142.5433,570.79,141.5169" style="stroke:#181818;stroke-width:1.0;"/><text fill="#000000" font-family="sans-serif" font-size="13" lengthAdjust="spacing" textLength="54" x="620.5" y="184.2538">contains</text><text fill="#000000" font-family="sans-serif" font-size="13" lengthAdjust="spacing" textLength="8" x="639.8913" y="207.2364">1</text></g><!--reverse link RuntimeLog to LogEntry--><g id="link_RuntimeLog_LogEntry"><path codeLine="40" d="M414.6246,145.1389 C358.2446,173.2989 296.46,204.1669 236.74,234.0069 " fill="none" id="RuntimeLog-backto-LogEntry" style="stroke:#181818;stroke-width:1.0;"/><polygon fill="#181818" points="425.36,139.7769,418.205,138.8794,414.6246,145.1389,421.7796,146.0363,425.36,139.7769" style="stroke:#181818;stroke-width:1.0;"/><text fill="#000000" font-family="sans-serif" font-size="13" lengthAdjust="spacing" textLength="54" x="357.5" y="184.2538">contains</text><text fill="#000000" font-family="sans-serif" font-size="13" lengthAdjust="spacing" textLength="23" x="225.3881" y="223.6151">0..*</text></g><!--link LogEntry to LogLevel--><g id="link_LogEntry_LogLevel"><path codeLine="41" d="M242.44,291.0769 C270.37,291.0769 298.56,291.0769 321.08,291.0769 " fill="none" id="LogEntry-LogLevel" style="stroke:#181818;stroke-width:1.0;"/><text fill="#000000" font-family="sans-serif" font-size="13" lengthAdjust="spacing" textLength="43" x="260.25" y="284.1438">level is</text></g><!--SRC=[VP9HQuCm58NV-oikFXOiswkKmaQxiU4gMFfSxlJM1aoKv5gGiV- -n1djT3HFuN2I- -MSiE2I86qK2qaGLmMy7v8z7B8BIOJZHmnRWOL6kLXa9He3JtLTYWnPL0g-5c1N20ebHM1O2rNqqfMqiPQ9-jc8CfzeMLMtMXGN7lHlF-lG6YOvZ36CcayEr5jXlSwHANJQPjFRAZER8Ek6IKzaMULKJZLKpHapRlJChdypEeby3cfpsodMxO3gd1PNrdT9-Q89ftcKT1snx35xT-oauPIzsM11Sug-HLUYvy2nhUYsEfze5t3K1-q1gi8c60l3Q_-kZHj2gf7WQVe9R_kNfDjiTy_7rswtIzCaTVuRd6KOGl0O_FayaUr5CGfb_dFsrTynFQnMos1C_iOvQ67thy8HEeAWYnU42Nu0]--></g></svg>