<svg xmlns="http://www.w3.org/2000/svg" xmlns:xlink="http://www.w3.org/1999/xlink" contentStyleType="text/css" height="495px" preserveAspectRatio="none" style="width:436px;height:495px;background:#FFFFFF;" version="1.1" viewBox="0 0 436 495" width="436px" zoomAndPan="magnify"><defs/><g><text fill="#000000" font-family="sans-serif" font-size="14" font-weight="bold" lengthAdjust="spacing" textLength="295" x="63.5" y="22.9951">Client Log JSON Schema UML Diagram</text><!--class ClientLog--><g id="elem_ClientLog"><rect codeLine="3" fill="#F1F1F1" height="64.2969" id="ClientLog" rx="2.5" ry="2.5" style="stroke:#181818;stroke-width:0.5;" width="199" x="25" y="44.2969"/><ellipse cx="88.25" cy="60.2969" fill="#ADD1B2" rx="11" ry="11" style="stroke:#181818;stroke-width:1.0;"/><path d="M91.2188,65.9375 Q90.6406,66.2344 90,66.375 Q89.3594,66.5313 88.6563,66.5313 Q86.1563,66.5313 84.8281,64.8906 Q83.5156,63.2344 83.5156,60.1094 Q83.5156,56.9844 84.8281,55.3281 Q86.1563,53.6719 88.6563,53.6719 Q89.3594,53.6719 90,53.8281 Q90.6563,53.9844 91.2188,54.2813 L91.2188,57 Q90.5938,56.4219 90,56.1563 Q89.4063,55.875 88.7813,55.875 Q87.4375,55.875 86.75,56.9531 Q86.0625,58.0156 86.0625,60.1094 Q86.0625,62.2031 86.75,63.2813 Q87.4375,64.3438 88.7813,64.3438 Q89.4063,64.3438 90,64.0781 Q90.5938,63.7969 91.2188,63.2188 L91.2188,65.9375 Z " fill="#000000"/><text fill="#000000" font-family="sans-serif" font-size="14" lengthAdjust="spacing" textLength="64" x="108.75" y="65.1436">ClientLog</text><line style="stroke:#181818;stroke-width:0.5;" x1="26" x2="223" y1="76.2969" y2="76.2969"/><rect fill="none" height="6" style="stroke:#C82930;stroke-width:1.0;" width="6" x="33" y="86.9453"/><text fill="#000000" font-family="sans-serif" font-size="14" lengthAdjust="spacing" textLength="173" x="45" y="93.292">sessions: List&lt;Session&gt;</text><line style="stroke:#181818;stroke-width:0.5;" x1="26" x2="223" y1="100.5938" y2="100.5938"/></g><!--class Session--><g id="elem_Session"><rect codeLine="7" fill="#F1F1F1" height="96.8906" id="Session" rx="2.5" ry="2.5" style="stroke:#181818;stroke-width:0.5;" width="230" x="9.5" y="185.5969"/><ellipse cx="92.75" cy="201.5969" fill="#ADD1B2" rx="11" ry="11" style="stroke:#181818;stroke-width:1.0;"/><path d="M95.7188,207.2375 Q95.1406,207.5344 94.5,207.675 Q93.8594,207.8313 93.1563,207.8313 Q90.6563,207.8313 89.3281,206.1906 Q88.0156,204.5344 88.0156,201.4094 Q88.0156,198.2844 89.3281,196.6281 Q90.6563,194.9719 93.1563,194.9719 Q93.8594,194.9719 94.5,195.1281 Q95.1563,195.2844 95.7188,195.5813 L95.7188,198.3 Q95.0938,197.7219 94.5,197.4563 Q93.9063,197.175 93.2813,197.175 Q91.9375,197.175 91.25,198.2531 Q90.5625,199.3156 90.5625,201.4094 Q90.5625,203.5031 91.25,204.5813 Q91.9375,205.6438 93.2813,205.6438 Q93.9063,205.6438 94.5,205.3781 Q95.0938,205.0969 95.7188,204.5188 L95.7188,207.2375 Z " fill="#000000"/><text fill="#000000" font-family="sans-serif" font-size="14" lengthAdjust="spacing" textLength="55" x="113.25" y="206.4436">Session</text><line style="stroke:#181818;stroke-width:0.5;" x1="10.5" x2="238.5" y1="217.5969" y2="217.5969"/><rect fill="none" height="6" style="stroke:#C82930;stroke-width:1.0;" width="6" x="17.5" y="228.2453"/><text fill="#000000" font-family="sans-serif" font-size="14" lengthAdjust="spacing" textLength="204" x="29.5" y="234.592">start_time: string «date-time»</text><rect fill="none" height="6" style="stroke:#C82930;stroke-width:1.0;" width="6" x="17.5" y="244.5422"/><text fill="#000000" font-family="sans-serif" font-size="14" lengthAdjust="spacing" textLength="200" x="29.5" y="250.8889">end_time: string «date-time»</text><rect fill="none" height="6" style="stroke:#C82930;stroke-width:1.0;" width="6" x="17.5" y="260.8391"/><text fill="#000000" font-family="sans-serif" font-size="14" lengthAdjust="spacing" textLength="110" x="29.5" y="267.1857">logs: List&lt;Log&gt;</text><line style="stroke:#181818;stroke-width:0.5;" x1="10.5" x2="238.5" y1="274.4875" y2="274.4875"/></g><!--class Log--><g id="elem_Log"><rect codeLine="13" fill="#F1F1F1" height="129.4844" id="Log" rx="2.5" ry="2.5" style="stroke:#181818;stroke-width:0.5;" width="235" x="7" y="359.4869"/><ellipse cx="107.75" cy="375.4869" fill="#ADD1B2" rx="11" ry="11" style="stroke:#181818;stroke-width:1.0;"/><path d="M110.7188,381.1275 Q110.1406,381.4244 109.5,381.565 Q108.8594,381.7213 108.1563,381.7213 Q105.6563,381.7213 104.3281,380.0806 Q103.0156,378.4244 103.0156,375.2994 Q103.0156,372.1744 104.3281,370.5181 Q105.6563,368.8619 108.1563,368.8619 Q108.8594,368.8619 109.5,369.0181 Q110.1563,369.1744 110.7188,369.4713 L110.7188,372.19 Q110.0938,371.6119 109.5,371.3463 Q108.9063,371.065 108.2813,371.065 Q106.9375,371.065 106.25,372.1431 Q105.5625,373.2056 105.5625,375.2994 Q105.5625,377.3931 106.25,378.4713 Q106.9375,379.5338 108.2813,379.5338 Q108.9063,379.5338 109.5,379.2681 Q110.0938,378.9869 110.7188,378.4088 L110.7188,381.1275 Z " fill="#000000"/><text fill="#000000" font-family="sans-serif" font-size="14" lengthAdjust="spacing" textLength="25" x="128.25" y="380.3336">Log</text><line style="stroke:#181818;stroke-width:0.5;" x1="8" x2="241" y1="391.4869" y2="391.4869"/><rect fill="none" height="6" style="stroke:#C82930;stroke-width:1.0;" width="6" x="15" y="402.1353"/><text fill="#000000" font-family="sans-serif" font-size="14" lengthAdjust="spacing" textLength="209" x="27" y="408.482">timestamp: string «date-time»</text><rect fill="none" height="6" style="stroke:#C82930;stroke-width:1.0;" width="6" x="15" y="418.4322"/><text fill="#000000" font-family="sans-serif" font-size="14" lengthAdjust="spacing" textLength="112" x="27" y="424.7789">thread_id: string</text><rect fill="none" height="6" style="stroke:#C82930;stroke-width:1.0;" width="6" x="15" y="434.7291"/><text fill="#000000" font-family="sans-serif" font-size="14" lengthAdjust="spacing" textLength="176" x="27" y="441.0757">level: string «LevelEnum»</text><rect fill="none" height="6" style="stroke:#C82930;stroke-width:1.0;" width="6" x="15" y="451.0259"/><text fill="#000000" font-family="sans-serif" font-size="14" lengthAdjust="spacing" textLength="112" x="27" y="457.3726">message: string</text><rect fill="none" height="6" style="stroke:#C82930;stroke-width:1.0;" width="6" x="15" y="467.3228"/><text fill="#000000" font-family="sans-serif" font-size="14" lengthAdjust="spacing" textLength="170" x="27" y="473.6695">details: string {optional}</text><line style="stroke:#181818;stroke-width:0.5;" x1="8" x2="241" y1="480.9713" y2="480.9713"/></g><!--class LevelEnum--><g id="elem_LevelEnum"><rect codeLine="21" fill="#F1F1F1" height="96.8906" id="LevelEnum" rx="2.5" ry="2.5" style="stroke:#181818;stroke-width:0.5;" width="107" x="322" y="375.7769"/><ellipse cx="337" cy="391.7769" fill="#EB937F" rx="11" ry="11" style="stroke:#181818;stroke-width:1.0;"/><path d="M341.1094,397.7769 L333.3906,397.7769 L333.3906,385.3863 L341.1094,385.3863 L341.1094,387.5425 L335.8438,387.5425 L335.8438,390.2144 L340.6094,390.2144 L340.6094,392.3706 L335.8438,392.3706 L335.8438,395.6206 L341.1094,395.6206 L341.1094,397.7769 Z " fill="#000000"/><text fill="#000000" font-family="sans-serif" font-size="14" lengthAdjust="spacing" textLength="75" x="351" y="396.6236">LevelEnum</text><line style="stroke:#181818;stroke-width:0.5;" x1="323" x2="428" y1="407.7769" y2="407.7769"/><text fill="#000000" font-family="sans-serif" font-size="14" lengthAdjust="spacing" textLength="32" x="328" y="424.772">INFO</text><text fill="#000000" font-family="sans-serif" font-size="14" lengthAdjust="spacing" textLength="51" x="328" y="441.0689">DEBUG</text><text fill="#000000" font-family="sans-serif" font-size="14" lengthAdjust="spacing" textLength="50" x="328" y="457.3657">ERROR</text><line style="stroke:#181818;stroke-width:0.5;" x1="323" x2="428" y1="464.6675" y2="464.6675"/></g><!--reverse link ClientLog to Session--><g id="link_ClientLog_Session"><path codeLine="27" d="M124.5,120.9269 C124.5,142.8669 124.5,160.5169 124.5,185.3369 " fill="none" id="ClientLog-backto-Session" style="stroke:#181818;stroke-width:1.0;"/><polygon fill="#181818" points="124.5,108.9269,120.5,114.9269,124.5,120.9269,128.5,114.9269,124.5,108.9269" style="stroke:#181818;stroke-width:1.0;"/><text fill="#000000" font-family="sans-serif" font-size="13" lengthAdjust="spacing" textLength="54" x="125.5" y="151.6638">contains</text><text fill="#000000" font-family="sans-serif" font-size="13" lengthAdjust="spacing" textLength="23" x="99.8828" y="174.5092">0..*</text></g><!--reverse link Session to Log--><g id="link_Session_Log"><path codeLine="28" d="M124.5,294.5269 C124.5,317.7169 124.5,333.9669 124.5,359.0469 " fill="none" id="Session-backto-Log" style="stroke:#181818;stroke-width:1.0;"/><polygon fill="#181818" points="124.5,282.5269,120.5,288.5269,124.5,294.5269,128.5,288.5269,124.5,282.5269" style="stroke:#181818;stroke-width:1.0;"/><text fill="#000000" font-family="sans-serif" font-size="13" lengthAdjust="spacing" textLength="54" x="125.5" y="325.5538">contains</text><text fill="#000000" font-family="sans-serif" font-size="13" lengthAdjust="spacing" textLength="23" x="100.3141" y="348.6253">0..*</text></g><!--link Log to LevelEnum--><g id="link_Log_LevelEnum"><path codeLine="29" d="M242.28,424.2269 C270.05,424.2269 298.32,424.2269 321.64,424.2269 " fill="none" id="Log-LevelEnum" style="stroke:#181818;stroke-width:1.0;"/><text fill="#000000" font-family="sans-serif" font-size="13" lengthAdjust="spacing" textLength="43" x="260.5" y="417.2938">level is</text></g><!--SRC=[XP11QyCm38Nl-HKYnuBBpY7ai3Kh6ra32JqNamX7O3ibrdOf_U-pioGrEsm-IU9zUizYOetmeWajGpKgU6_h4xJTW4R2-QE20qarIPCadPREBSeWl2NWdm27pj5eNGOLESxRdxP8xYkoJ1u0oualJ0OpNqza5UHvBnb5c1N58aFR_o_IergDVQR8D4uO26zghd-kuc52sL-eNrMh1NwXZiWgzANzD1lfjpkfy1VN8qlIRYDluvNz6QI-XvJe5y2sQedwTdgjv-9GFf-FSrKsJTq4u77udH2GFkttktGxRGRTQBsTTSawYbG1YXIX5HEfWKMK88Dq_YcGIxy1]--></g></svg>