<svg xmlns="http://www.w3.org/2000/svg" xmlns:xlink="http://www.w3.org/1999/xlink" contentStyleType="text/css" height="322px" preserveAspectRatio="none" style="width:517px;height:322px;background:#FFFFFF;" version="1.1" viewBox="0 0 517 322" width="517px" zoomAndPan="magnify"><defs/><g><text fill="#000000" font-family="sans-serif" font-size="14" font-weight="bold" lengthAdjust="spacing" textLength="269" x="117" y="22.9951">Return JSON Schema UML Diagram</text><!--class ReturnJSON--><g id="elem_ReturnJSON"><rect codeLine="3" fill="#F1F1F1" height="96.8906" id="ReturnJSON" rx="2.5" ry="2.5" style="stroke:#181818;stroke-width:0.5;" width="248" x="56" y="44.2969"/><ellipse cx="135.75" cy="60.2969" fill="#ADD1B2" rx="11" ry="11" style="stroke:#181818;stroke-width:1.0;"/><path d="M138.7188,65.9375 Q138.1406,66.2344 137.5,66.375 Q136.8594,66.5313 136.1563,66.5313 Q133.6563,66.5313 132.3281,64.8906 Q131.0156,63.2344 131.0156,60.1094 Q131.0156,56.9844 132.3281,55.3281 Q133.6563,53.6719 136.1563,53.6719 Q136.8594,53.6719 137.5,53.8281 Q138.1563,53.9844 138.7188,54.2813 L138.7188,57 Q138.0938,56.4219 137.5,56.1563 Q136.9063,55.875 136.2813,55.875 Q134.9375,55.875 134.25,56.9531 Q133.5625,58.0156 133.5625,60.1094 Q133.5625,62.2031 134.25,63.2813 Q134.9375,64.3438 136.2813,64.3438 Q136.9063,64.3438 137.5,64.0781 Q138.0938,63.7969 138.7188,63.2188 L138.7188,65.9375 Z " fill="#000000"/><text fill="#000000" font-family="sans-serif" font-size="14" lengthAdjust="spacing" textLength="80" x="156.25" y="65.1436">ReturnJSON</text><line style="stroke:#181818;stroke-width:0.5;" x1="57" x2="303" y1="76.2969" y2="76.2969"/><rect fill="none" height="6" style="stroke:#C82930;stroke-width:1.0;" width="6" x="64" y="86.9453"/><text fill="#000000" font-family="sans-serif" font-size="14" lengthAdjust="spacing" textLength="197" x="76" y="93.292">status: string «StatusEnum»</text><rect fill="none" height="6" style="stroke:#C82930;stroke-width:1.0;" width="6" x="64" y="103.2422"/><text fill="#000000" font-family="sans-serif" font-size="14" lengthAdjust="spacing" textLength="222" x="76" y="109.5889">results: List&lt;Metric&gt; {optional}</text><rect fill="none" height="6" style="stroke:#C82930;stroke-width:1.0;" width="6" x="64" y="119.5391"/><text fill="#000000" font-family="sans-serif" font-size="14" lengthAdjust="spacing" textLength="207" x="76" y="125.8857">errors: List&lt;Error&gt; {optional}</text><line style="stroke:#181818;stroke-width:0.5;" x1="57" x2="303" y1="133.1875" y2="133.1875"/></g><!--class Metric--><g id="elem_Metric"><rect codeLine="9" fill="#F1F1F1" height="96.8906" id="Metric" rx="2.5" ry="2.5" style="stroke:#181818;stroke-width:0.5;" width="142" x="7" y="218.1869"/><ellipse cx="52.75" cy="234.1869" fill="#ADD1B2" rx="11" ry="11" style="stroke:#181818;stroke-width:1.0;"/><path d="M55.7188,239.8275 Q55.1406,240.1244 54.5,240.265 Q53.8594,240.4213 53.1563,240.4213 Q50.6563,240.4213 49.3281,238.7806 Q48.0156,237.1244 48.0156,233.9994 Q48.0156,230.8744 49.3281,229.2181 Q50.6563,227.5619 53.1563,227.5619 Q53.8594,227.5619 54.5,227.7181 Q55.1563,227.8744 55.7188,228.1713 L55.7188,230.89 Q55.0938,230.3119 54.5,230.0463 Q53.9063,229.765 53.2813,229.765 Q51.9375,229.765 51.25,230.8431 Q50.5625,231.9056 50.5625,233.9994 Q50.5625,236.0931 51.25,237.1713 Q51.9375,238.2338 53.2813,238.2338 Q53.9063,238.2338 54.5,237.9681 Q55.0938,237.6869 55.7188,237.1088 L55.7188,239.8275 Z " fill="#000000"/><text fill="#000000" font-family="sans-serif" font-size="14" lengthAdjust="spacing" textLength="42" x="73.25" y="239.0336">Metric</text><line style="stroke:#181818;stroke-width:0.5;" x1="8" x2="148" y1="250.1869" y2="250.1869"/><rect fill="none" height="6" style="stroke:#C82930;stroke-width:1.0;" width="6" x="15" y="260.8353"/><text fill="#000000" font-family="sans-serif" font-size="14" lengthAdjust="spacing" textLength="116" x="27" y="267.182">short_info: string</text><rect fill="none" height="6" style="stroke:#C82930;stroke-width:1.0;" width="6" x="15" y="277.1322"/><text fill="#000000" font-family="sans-serif" font-size="14" lengthAdjust="spacing" textLength="110" x="27" y="283.4789">long_info: string</text><rect fill="none" height="6" style="stroke:#C82930;stroke-width:1.0;" width="6" x="15" y="293.4291"/><text fill="#000000" font-family="sans-serif" font-size="14" lengthAdjust="spacing" textLength="87" x="27" y="299.7757">name: string</text><line style="stroke:#181818;stroke-width:0.5;" x1="8" x2="148" y1="307.0775" y2="307.0775"/></g><!--class Error--><g id="elem_Error"><rect codeLine="15" fill="#F1F1F1" height="80.5938" id="Error" rx="2.5" ry="2.5" style="stroke:#181818;stroke-width:0.5;" width="196" x="184" y="226.3369"/><ellipse cx="261.25" cy="242.3369" fill="#ADD1B2" rx="11" ry="11" style="stroke:#181818;stroke-width:1.0;"/><path d="M264.2188,247.9775 Q263.6406,248.2744 263,248.415 Q262.3594,248.5712 261.6563,248.5712 Q259.1563,248.5712 257.8281,246.9306 Q256.5156,245.2744 256.5156,242.1494 Q256.5156,239.0244 257.8281,237.3681 Q259.1563,235.7119 261.6563,235.7119 Q262.3594,235.7119 263,235.8681 Q263.6563,236.0244 264.2188,236.3212 L264.2188,239.04 Q263.5938,238.4619 263,238.1962 Q262.4063,237.915 261.7813,237.915 Q260.4375,237.915 259.75,238.9931 Q259.0625,240.0556 259.0625,242.1494 Q259.0625,244.2431 259.75,245.3212 Q260.4375,246.3837 261.7813,246.3837 Q262.4063,246.3837 263,246.1181 Q263.5938,245.8369 264.2188,245.2587 L264.2188,247.9775 Z " fill="#000000"/><text fill="#000000" font-family="sans-serif" font-size="14" lengthAdjust="spacing" textLength="33" x="281.75" y="247.1836">Error</text><line style="stroke:#181818;stroke-width:0.5;" x1="185" x2="379" y1="258.3369" y2="258.3369"/><rect fill="none" height="6" style="stroke:#C82930;stroke-width:1.0;" width="6" x="192" y="268.9853"/><text fill="#000000" font-family="sans-serif" font-size="14" lengthAdjust="spacing" textLength="112" x="204" y="275.332">message: string</text><rect fill="none" height="6" style="stroke:#C82930;stroke-width:1.0;" width="6" x="192" y="285.2822"/><text fill="#000000" font-family="sans-serif" font-size="14" lengthAdjust="spacing" textLength="170" x="204" y="291.6289">details: string {optional}</text><line style="stroke:#181818;stroke-width:0.5;" x1="185" x2="379" y1="298.9306" y2="298.9306"/></g><!--class StatusEnum--><g id="elem_StatusEnum"><rect codeLine="20" fill="#F1F1F1" height="96.8906" id="StatusEnum" rx="2.5" ry="2.5" style="stroke:#181818;stroke-width:0.5;" width="116" x="394" y="44.2969"/><ellipse cx="409" cy="60.2969" fill="#EB937F" rx="11" ry="11" style="stroke:#181818;stroke-width:1.0;"/><path d="M413.1094,66.2969 L405.3906,66.2969 L405.3906,53.9063 L413.1094,53.9063 L413.1094,56.0625 L407.8438,56.0625 L407.8438,58.7344 L412.6094,58.7344 L412.6094,60.8906 L407.8438,60.8906 L407.8438,64.1406 L413.1094,64.1406 L413.1094,66.2969 Z " fill="#000000"/><text fill="#000000" font-family="sans-serif" font-size="14" lengthAdjust="spacing" textLength="84" x="423" y="65.1436">StatusEnum</text><line style="stroke:#181818;stroke-width:0.5;" x1="395" x2="509" y1="76.2969" y2="76.2969"/><text fill="#000000" font-family="sans-serif" font-size="14" lengthAdjust="spacing" textLength="58" x="400" y="93.292">success</text><text fill="#000000" font-family="sans-serif" font-size="14" lengthAdjust="spacing" textLength="60" x="400" y="109.5889">cheating</text><text fill="#000000" font-family="sans-serif" font-size="14" lengthAdjust="spacing" textLength="33" x="400" y="125.8857">error</text><line style="stroke:#181818;stroke-width:0.5;" x1="395" x2="509" y1="133.1875" y2="133.1875"/></g><!--reverse link ReturnJSON to Metric--><g id="link_ReturnJSON_Metric"><path codeLine="26" d="M145.4653,151.9462 C131.3753,175.6862 120.53,193.9669 106.44,217.7069 " fill="none" id="ReturnJSON-backto-Metric" style="stroke:#181818;stroke-width:1.0;"/><polygon fill="#181818" points="151.59,141.6269,145.0879,144.745,145.4653,151.9462,151.9674,148.8281,151.59,141.6269" style="stroke:#181818;stroke-width:1.0;"/><text fill="#000000" font-family="sans-serif" font-size="13" lengthAdjust="spacing" textLength="54" x="134" y="184.2538">contains</text><text fill="#000000" font-family="sans-serif" font-size="13" lengthAdjust="spacing" textLength="23" x="85.7163" y="207.2005">0..*</text></g><!--reverse link ReturnJSON to Error--><g id="link_ReturnJSON_Error"><path codeLine="27" d="M214.5347,151.9462 C230.2747,178.4662 243.49,200.7269 258.39,225.8369 " fill="none" id="ReturnJSON-backto-Error" style="stroke:#181818;stroke-width:1.0;"/><polygon fill="#181818" points="208.41,141.6269,208.0326,148.8281,214.5347,151.9462,214.9121,144.745,208.41,141.6269" style="stroke:#181818;stroke-width:1.0;"/><text fill="#000000" font-family="sans-serif" font-size="13" lengthAdjust="spacing" textLength="54" x="235" y="184.2538">contains</text><text fill="#000000" font-family="sans-serif" font-size="13" lengthAdjust="spacing" textLength="23" x="229.7943" y="215.217">0..*</text></g><!--link ReturnJSON to StatusEnum--><g id="link_ReturnJSON_StatusEnum"><path codeLine="28" d="M304.46,92.7369 C335.51,92.7369 367.37,92.7369 393.51,92.7369 " fill="none" id="ReturnJSON-StatusEnum" style="stroke:#181818;stroke-width:1.0;"/><text fill="#000000" font-family="sans-serif" font-size="13" lengthAdjust="spacing" textLength="54" x="322" y="85.8038">status is</text></g><!--SRC=[TP4nRyCW48Lt_ugJnqX4dItBKxDKIIlLwbmXUiL862hkcAByzn8CTbAbBC3ntUCzOCCMuHqv1WSluzihZ6h2MSB7wGZFHkeWvwPHLX8LAaFd1j8GG2mvKfVcO9o6lXzpuU3YF0o52KZHSeAEXhW_OKBL06V_myOxQIy5mn1ygDJXkhc3BjN58h0vc7pWJ-E-VNLH3gnt-b7ToHdNqggQBrn5PoII6lzqVY5BOxUqz-umPOOjVj6Yg5GIo-lqi9AhN8vxxRjvrPqGq3xjzxksfkn0UPTkTVGFj_X-Z8bWzCJYrbG7xV9bOAZz1G00]--></g></svg>