<svg xmlns="http://www.w3.org/2000/svg" xmlns:xlink="http://www.w3.org/1999/xlink" contentStyleType="text/css" height="891px" preserveAspectRatio="none" style="width:2322px;height:891px;background:#FFFFFF;" version="1.1" viewBox="0 0 2322 891" width="2322px" zoomAndPan="magnify"><defs/><g><!--cluster Log Processing System--><g id="cluster_Log Processing System"><path d="M8.5,6 L194.5,6 A3.75,3.75 0 0 1 197,8.5 L204,28.2969 L2312.5,28.2969 A2.5,2.5 0 0 1 2315,30.7969 L2315,882.36 A2.5,2.5 0 0 1 2312.5,884.86 L8.5,884.86 A2.5,2.5 0 0 1 6,882.36 L6,8.5 A2.5,2.5 0 0 1 8.5,6 " fill="none" style="stroke:#000000;stroke-width:1.5;"/><line style="stroke:#000000;stroke-width:1.5;" x1="6" x2="204" y1="28.2969" y2="28.2969"/><text fill="#000000" font-family="sans-serif" font-size="14" font-weight="bold" lengthAdjust="spacing" textLength="185" x="10" y="20.9951">Log Processing System</text></g><!--cluster ZentralInfoPrep--><g id="cluster_ZentralInfoPrep"><path d="M758.5,49 L883.5,49 A3.75,3.75 0 0 1 886,51.5 L893,71.2969 L1879.5,71.2969 A2.5,2.5 0 0 1 1882,73.7969 L1882,368.28 A2.5,2.5 0 0 1 1879.5,370.78 L758.5,370.78 A2.5,2.5 0 0 1 756,368.28 L756,51.5 A2.5,2.5 0 0 1 758.5,49 " fill="none" style="stroke:#000000;stroke-width:1.5;"/><line style="stroke:#000000;stroke-width:1.5;" x1="756" x2="893" y1="71.2969" y2="71.2969"/><text fill="#000000" font-family="sans-serif" font-size="14" font-weight="bold" lengthAdjust="spacing" textLength="124" x="760" y="63.9951">ZentralInfoPrep</text></g><!--cluster TestingPipeline--><g id="cluster_TestingPipeline"><path d="M32.5,419.78 L154.5,419.78 A3.75,3.75 0 0 1 157,422.28 L164,442.0769 L2288.5,442.0769 A2.5,2.5 0 0 1 2291,444.5769 L2291,722.77 A2.5,2.5 0 0 1 2288.5,725.27 L32.5,725.27 A2.5,2.5 0 0 1 30,722.77 L30,422.28 A2.5,2.5 0 0 1 32.5,419.78 " fill="none" style="stroke:#000000;stroke-width:1.5;"/><line style="stroke:#000000;stroke-width:1.5;" x1="30" x2="164" y1="442.0769" y2="442.0769"/><text fill="#000000" font-family="sans-serif" font-size="14" font-weight="bold" lengthAdjust="spacing" textLength="121" x="34" y="434.7751">TestingPipeline</text></g><!--class Output--><g id="elem_Output"><rect codeLine="103" fill="#F1F1F1" height="80.5938" id="Output" rx="2.5" ry="2.5" style="stroke:#181818;stroke-width:0.5;" width="299" x="1092.5" y="788.27"/><ellipse cx="1213.75" cy="804.27" fill="#ADD1B2" rx="11" ry="11" style="stroke:#181818;stroke-width:1.0;"/><path d="M1216.7188,809.9106 Q1216.1406,810.2075 1215.5,810.3481 Q1214.8594,810.5044 1214.1563,810.5044 Q1211.6563,810.5044 1210.3281,808.8638 Q1209.0156,807.2075 1209.0156,804.0825 Q1209.0156,800.9575 1210.3281,799.3013 Q1211.6563,797.645 1214.1563,797.645 Q1214.8594,797.645 1215.5,797.8013 Q1216.1563,797.9575 1216.7188,798.2544 L1216.7188,800.9731 Q1216.0938,800.395 1215.5,800.1294 Q1214.9063,799.8481 1214.2813,799.8481 Q1212.9375,799.8481 1212.25,800.9263 Q1211.5625,801.9888 1211.5625,804.0825 Q1211.5625,806.1763 1212.25,807.2544 Q1212.9375,808.3169 1214.2813,808.3169 Q1214.9063,808.3169 1215.5,808.0513 Q1216.0938,807.77 1216.7188,807.1919 L1216.7188,809.9106 Z " fill="#000000"/><text fill="#000000" font-family="sans-serif" font-size="14" lengthAdjust="spacing" textLength="48" x="1234.25" y="809.1167">Output</text><line style="stroke:#181818;stroke-width:0.5;" x1="1093.5" x2="1390.5" y1="820.27" y2="820.27"/><text fill="#000000" font-family="sans-serif" font-size="14" lengthAdjust="spacing" textLength="287" x="1098.5" y="837.2651">Pr&#228;sentiert oder speichert die Ergebnisse</text><line style="stroke:#181818;stroke-width:1.0;" x1="1093.5" x2="1390.5" y1="844.5669" y2="844.5669"/><ellipse cx="1103.5" cy="858.2153" fill="#84BE84" rx="3" ry="3" style="stroke:#038048;stroke-width:1.0;"/><text fill="#000000" font-family="sans-serif" font-size="14" lengthAdjust="spacing" textLength="104" x="1112.5" y="861.562">display(results)</text></g><!--class LogParser--><g id="elem_LogParser"><rect codeLine="4" fill="#F1F1F1" height="113.1875" id="LogParser" rx="2.5" ry="2.5" style="stroke:#181818;stroke-width:0.5;" width="224" x="772" y="84"/><ellipse cx="845.25" cy="100" fill="#ADD1B2" rx="11" ry="11" style="stroke:#181818;stroke-width:1.0;"/><path d="M848.2188,105.6406 Q847.6406,105.9375 847,106.0781 Q846.3594,106.2344 845.6563,106.2344 Q843.1563,106.2344 841.8281,104.5938 Q840.5156,102.9375 840.5156,99.8125 Q840.5156,96.6875 841.8281,95.0313 Q843.1563,93.375 845.6563,93.375 Q846.3594,93.375 847,93.5313 Q847.6563,93.6875 848.2188,93.9844 L848.2188,96.7031 Q847.5938,96.125 847,95.8594 Q846.4063,95.5781 845.7813,95.5781 Q844.4375,95.5781 843.75,96.6563 Q843.0625,97.7188 843.0625,99.8125 Q843.0625,101.9063 843.75,102.9844 Q844.4375,104.0469 845.7813,104.0469 Q846.4063,104.0469 847,103.7813 Q847.5938,103.5 848.2188,102.9219 L848.2188,105.6406 Z " fill="#000000"/><text fill="#000000" font-family="sans-serif" font-size="14" lengthAdjust="spacing" textLength="69" x="865.75" y="104.8467">LogParser</text><line style="stroke:#181818;stroke-width:0.5;" x1="773" x2="995" y1="116" y2="116"/><text fill="#000000" font-family="sans-serif" font-size="14" lengthAdjust="spacing" textLength="212" x="778" y="132.9951">Empf&#228;ngt und verarbeitet Logs</text><text fill="#000000" font-family="sans-serif" font-size="14" lengthAdjust="spacing" textLength="172" x="778" y="149.292">Wandelt Logs in JSON um</text><line style="stroke:#181818;stroke-width:1.0;" x1="773" x2="995" y1="156.5938" y2="156.5938"/><ellipse cx="783" cy="170.2422" fill="#84BE84" rx="3" ry="3" style="stroke:#038048;stroke-width:1.0;"/><text fill="#000000" font-family="sans-serif" font-size="14" lengthAdjust="spacing" textLength="114" x="792" y="173.5889">parse_logs(logs)</text><ellipse cx="783" cy="186.5391" fill="#84BE84" rx="3" ry="3" style="stroke:#038048;stroke-width:1.0;"/><text fill="#000000" font-family="sans-serif" font-size="14" lengthAdjust="spacing" textLength="148" x="792" y="189.8857">convert_to_json(logs)</text></g><!--class QuizAnswersPrep--><g id="elem_QuizAnswersPrep"><rect codeLine="12" fill="#F1F1F1" height="113.1875" id="QuizAnswersPrep" rx="2.5" ry="2.5" style="stroke:#181818;stroke-width:0.5;" width="436" x="1031" y="84"/><ellipse cx="1183.75" cy="100" fill="#ADD1B2" rx="11" ry="11" style="stroke:#181818;stroke-width:1.0;"/><path d="M1186.7188,105.6406 Q1186.1406,105.9375 1185.5,106.0781 Q1184.8594,106.2344 1184.1563,106.2344 Q1181.6563,106.2344 1180.3281,104.5938 Q1179.0156,102.9375 1179.0156,99.8125 Q1179.0156,96.6875 1180.3281,95.0313 Q1181.6563,93.375 1184.1563,93.375 Q1184.8594,93.375 1185.5,93.5313 Q1186.1563,93.6875 1186.7188,93.9844 L1186.7188,96.7031 Q1186.0938,96.125 1185.5,95.8594 Q1184.9063,95.5781 1184.2813,95.5781 Q1182.9375,95.5781 1182.25,96.6563 Q1181.5625,97.7188 1181.5625,99.8125 Q1181.5625,101.9063 1182.25,102.9844 Q1182.9375,104.0469 1184.2813,104.0469 Q1184.9063,104.0469 1185.5,103.7813 Q1186.0938,103.5 1186.7188,102.9219 L1186.7188,105.6406 Z " fill="#000000"/><text fill="#000000" font-family="sans-serif" font-size="14" lengthAdjust="spacing" textLength="122" x="1204.25" y="104.8467">QuizAnswersPrep</text><line style="stroke:#181818;stroke-width:0.5;" x1="1032" x2="1466" y1="116" y2="116"/><text fill="#000000" font-family="sans-serif" font-size="14" lengthAdjust="spacing" textLength="424" x="1037" y="132.9951">Empf&#228;ngt und verarbeitet die Antworten auf die Klausurfragen</text><text fill="#000000" font-family="sans-serif" font-size="14" lengthAdjust="spacing" textLength="210" x="1037" y="149.292">Wandelt Antworten in JSON um</text><line style="stroke:#181818;stroke-width:1.0;" x1="1032" x2="1466" y1="156.5938" y2="156.5938"/><ellipse cx="1042" cy="170.2422" fill="#84BE84" rx="3" ry="3" style="stroke:#038048;stroke-width:1.0;"/><text fill="#000000" font-family="sans-serif" font-size="14" lengthAdjust="spacing" textLength="172" x="1051" y="173.5889">parse_answers(answers)</text><ellipse cx="1042" cy="186.5391" fill="#84BE84" rx="3" ry="3" style="stroke:#038048;stroke-width:1.0;"/><text fill="#000000" font-family="sans-serif" font-size="14" lengthAdjust="spacing" textLength="177" x="1051" y="189.8857">convert_to_json(answers)</text></g><!--class FutureInfos--><g id="elem_FutureInfos"><rect codeLine="20" fill="#F1F1F1" height="113.1875" id="FutureInfos" rx="2.5" ry="2.5" style="stroke:#181818;stroke-width:0.5;" width="363" x="1502.5" y="84"/><ellipse cx="1640.75" cy="100" fill="#ADD1B2" rx="11" ry="11" style="stroke:#181818;stroke-width:1.0;"/><path d="M1643.7188,105.6406 Q1643.1406,105.9375 1642.5,106.0781 Q1641.8594,106.2344 1641.1563,106.2344 Q1638.6563,106.2344 1637.3281,104.5938 Q1636.0156,102.9375 1636.0156,99.8125 Q1636.0156,96.6875 1637.3281,95.0313 Q1638.6563,93.375 1641.1563,93.375 Q1641.8594,93.375 1642.5,93.5313 Q1643.1563,93.6875 1643.7188,93.9844 L1643.7188,96.7031 Q1643.0938,96.125 1642.5,95.8594 Q1641.9063,95.5781 1641.2813,95.5781 Q1639.9375,95.5781 1639.25,96.6563 Q1638.5625,97.7188 1638.5625,99.8125 Q1638.5625,101.9063 1639.25,102.9844 Q1639.9375,104.0469 1641.2813,104.0469 Q1641.9063,104.0469 1642.5,103.7813 Q1643.0938,103.5 1643.7188,102.9219 L1643.7188,105.6406 Z " fill="#000000"/><text fill="#000000" font-family="sans-serif" font-size="14" lengthAdjust="spacing" textLength="78" x="1661.25" y="104.8467">FutureInfos</text><line style="stroke:#181818;stroke-width:0.5;" x1="1503.5" x2="1864.5" y1="116" y2="116"/><text fill="#000000" font-family="sans-serif" font-size="14" lengthAdjust="spacing" textLength="351" x="1508.5" y="132.9951">Empf&#228;ngt und verarbeitet zuk&#252;nftige Informationen</text><text fill="#000000" font-family="sans-serif" font-size="14" lengthAdjust="spacing" textLength="234" x="1508.5" y="149.292">Wandelt Informationen in JSON um</text><line style="stroke:#181818;stroke-width:1.0;" x1="1503.5" x2="1864.5" y1="156.5938" y2="156.5938"/><ellipse cx="1513.5" cy="170.2422" fill="#84BE84" rx="3" ry="3" style="stroke:#038048;stroke-width:1.0;"/><text fill="#000000" font-family="sans-serif" font-size="14" lengthAdjust="spacing" textLength="139" x="1522.5" y="173.5889">process_infos(infos)</text><ellipse cx="1513.5" cy="186.5391" fill="#84BE84" rx="3" ry="3" style="stroke:#038048;stroke-width:1.0;"/><text fill="#000000" font-family="sans-serif" font-size="14" lengthAdjust="spacing" textLength="152" x="1522.5" y="189.8857">convert_to_json(infos)</text></g><!--class DataDistributor--><g id="elem_DataDistributor"><rect codeLine="28" fill="#F1F1F1" height="80.5938" id="DataDistributor" rx="2.5" ry="2.5" style="stroke:#181818;stroke-width:0.5;" width="331" x="1083.5" y="274.19"/><ellipse cx="1192.75" cy="290.19" fill="#ADD1B2" rx="11" ry="11" style="stroke:#181818;stroke-width:1.0;"/><path d="M1195.7188,295.8306 Q1195.1406,296.1275 1194.5,296.2681 Q1193.8594,296.4244 1193.1563,296.4244 Q1190.6563,296.4244 1189.3281,294.7838 Q1188.0156,293.1275 1188.0156,290.0025 Q1188.0156,286.8775 1189.3281,285.2213 Q1190.6563,283.565 1193.1563,283.565 Q1193.8594,283.565 1194.5,283.7213 Q1195.1563,283.8775 1195.7188,284.1744 L1195.7188,286.8931 Q1195.0938,286.315 1194.5,286.0494 Q1193.9063,285.7681 1193.2813,285.7681 Q1191.9375,285.7681 1191.25,286.8463 Q1190.5625,287.9088 1190.5625,290.0025 Q1190.5625,292.0963 1191.25,293.1744 Q1191.9375,294.2369 1193.2813,294.2369 Q1193.9063,294.2369 1194.5,293.9713 Q1195.0938,293.69 1195.7188,293.1119 L1195.7188,295.8306 Z " fill="#000000"/><text fill="#000000" font-family="sans-serif" font-size="14" lengthAdjust="spacing" textLength="104" x="1213.25" y="295.0367">DataDistributor</text><line style="stroke:#181818;stroke-width:0.5;" x1="1084.5" x2="1413.5" y1="306.19" y2="306.19"/><text fill="#000000" font-family="sans-serif" font-size="14" lengthAdjust="spacing" textLength="319" x="1089.5" y="323.1851">Verteilt notwendige Daten an einzelne Module</text><line style="stroke:#181818;stroke-width:1.0;" x1="1084.5" x2="1413.5" y1="330.4869" y2="330.4869"/><ellipse cx="1094.5" cy="344.1353" fill="#84BE84" rx="3" ry="3" style="stroke:#038048;stroke-width:1.0;"/><text fill="#000000" font-family="sans-serif" font-size="14" lengthAdjust="spacing" textLength="142" x="1103.5" y="347.482">distribute_data(data)</text></g><!--class RuleBasedAnomalyDetector--><g id="elem_RuleBasedAnomalyDetector"><rect codeLine="36" fill="#F1F1F1" height="80.5938" id="RuleBasedAnomalyDetector" rx="2.5" ry="2.5" style="stroke:#181818;stroke-width:0.5;" width="273" x="661.5" y="454.78"/><ellipse cx="697.65" cy="470.78" fill="#ADD1B2" rx="11" ry="11" style="stroke:#181818;stroke-width:1.0;"/><path d="M700.6188,476.4206 Q700.0406,476.7175 699.4,476.8581 Q698.7594,477.0144 698.0563,477.0144 Q695.5563,477.0144 694.2281,475.3738 Q692.9156,473.7175 692.9156,470.5925 Q692.9156,467.4675 694.2281,465.8113 Q695.5563,464.155 698.0563,464.155 Q698.7594,464.155 699.4,464.3113 Q700.0563,464.4675 700.6188,464.7644 L700.6188,467.4831 Q699.9938,466.905 699.4,466.6394 Q698.8063,466.3581 698.1813,466.3581 Q696.8375,466.3581 696.15,467.4363 Q695.4625,468.4988 695.4625,470.5925 Q695.4625,472.6863 696.15,473.7644 Q696.8375,474.8269 698.1813,474.8269 Q698.8063,474.8269 699.4,474.5613 Q699.9938,474.28 700.6188,473.7019 L700.6188,476.4206 Z " fill="#000000"/><text fill="#000000" font-family="sans-serif" font-size="14" lengthAdjust="spacing" textLength="194" x="716.35" y="475.6267">RuleBasedAnomalyDetector</text><line style="stroke:#181818;stroke-width:0.5;" x1="662.5" x2="933.5" y1="486.78" y2="486.78"/><text fill="#000000" font-family="sans-serif" font-size="14" lengthAdjust="spacing" textLength="261" x="667.5" y="503.7751">Pr&#252;ft Logs gegen vordefinierte Regeln</text><line style="stroke:#181818;stroke-width:1.0;" x1="662.5" x2="933.5" y1="511.0769" y2="511.0769"/><ellipse cx="672.5" cy="524.7253" fill="#84BE84" rx="3" ry="3" style="stroke:#038048;stroke-width:1.0;"/><text fill="#000000" font-family="sans-serif" font-size="14" lengthAdjust="spacing" textLength="161" x="681.5" y="528.072">detect_anomalies(logs)</text></g><!--class FastTyping--><g id="elem_FastTyping"><rect codeLine="42" fill="#F1F1F1" height="80.5938" id="FastTyping" rx="2.5" ry="2.5" style="stroke:#181818;stroke-width:0.5;" width="244" x="46" y="620.52"/><ellipse cx="126.25" cy="636.52" fill="#ADD1B2" rx="11" ry="11" style="stroke:#181818;stroke-width:1.0;"/><path d="M129.2188,642.1606 Q128.6406,642.4575 128,642.5981 Q127.3594,642.7544 126.6563,642.7544 Q124.1563,642.7544 122.8281,641.1138 Q121.5156,639.4575 121.5156,636.3325 Q121.5156,633.2075 122.8281,631.5513 Q124.1563,629.895 126.6563,629.895 Q127.3594,629.895 128,630.0513 Q128.6563,630.2075 129.2188,630.5044 L129.2188,633.2231 Q128.5938,632.645 128,632.3794 Q127.4063,632.0981 126.7813,632.0981 Q125.4375,632.0981 124.75,633.1763 Q124.0625,634.2388 124.0625,636.3325 Q124.0625,638.4263 124.75,639.5044 Q125.4375,640.5669 126.7813,640.5669 Q127.4063,640.5669 128,640.3013 Q128.5938,640.02 129.2188,639.4419 L129.2188,642.1606 Z " fill="#000000"/><text fill="#000000" font-family="sans-serif" font-size="14" lengthAdjust="spacing" textLength="75" x="146.75" y="641.3667">FastTyping</text><line style="stroke:#181818;stroke-width:0.5;" x1="47" x2="289" y1="652.52" y2="652.52"/><text fill="#000000" font-family="sans-serif" font-size="14" lengthAdjust="spacing" textLength="232" x="52" y="669.5151">Erkennung von schneller Eingabe</text><line style="stroke:#181818;stroke-width:1.0;" x1="47" x2="289" y1="676.8169" y2="676.8169"/><ellipse cx="57" cy="690.4653" fill="#84BE84" rx="3" ry="3" style="stroke:#038048;stroke-width:1.0;"/><text fill="#000000" font-family="sans-serif" font-size="14" lengthAdjust="spacing" textLength="81" x="66" y="693.812">check(logs)</text></g><!--class SameHardware--><g id="elem_SameHardware"><rect codeLine="48" fill="#F1F1F1" height="80.5938" id="SameHardware" rx="2.5" ry="2.5" style="stroke:#181818;stroke-width:0.5;" width="245" x="325.5" y="620.52"/><ellipse cx="391.75" cy="636.52" fill="#ADD1B2" rx="11" ry="11" style="stroke:#181818;stroke-width:1.0;"/><path d="M394.7188,642.1606 Q394.1406,642.4575 393.5,642.5981 Q392.8594,642.7544 392.1563,642.7544 Q389.6563,642.7544 388.3281,641.1138 Q387.0156,639.4575 387.0156,636.3325 Q387.0156,633.2075 388.3281,631.5513 Q389.6563,629.895 392.1563,629.895 Q392.8594,629.895 393.5,630.0513 Q394.1563,630.2075 394.7188,630.5044 L394.7188,633.2231 Q394.0938,632.645 393.5,632.3794 Q392.9063,632.0981 392.2813,632.0981 Q390.9375,632.0981 390.25,633.1763 Q389.5625,634.2388 389.5625,636.3325 Q389.5625,638.4263 390.25,639.5044 Q390.9375,640.5669 392.2813,640.5669 Q392.9063,640.5669 393.5,640.3013 Q394.0938,640.02 394.7188,639.4419 L394.7188,642.1606 Z " fill="#000000"/><text fill="#000000" font-family="sans-serif" font-size="14" lengthAdjust="spacing" textLength="104" x="412.25" y="641.3667">SameHardware</text><line style="stroke:#181818;stroke-width:0.5;" x1="326.5" x2="569.5" y1="652.52" y2="652.52"/><text fill="#000000" font-family="sans-serif" font-size="14" lengthAdjust="spacing" textLength="233" x="331.5" y="669.5151">Erkennung von gleicher Hardware</text><line style="stroke:#181818;stroke-width:1.0;" x1="326.5" x2="569.5" y1="676.8169" y2="676.8169"/><ellipse cx="336.5" cy="690.4653" fill="#84BE84" rx="3" ry="3" style="stroke:#038048;stroke-width:1.0;"/><text fill="#000000" font-family="sans-serif" font-size="14" lengthAdjust="spacing" textLength="81" x="345.5" y="693.812">check(logs)</text></g><!--class VMDetection--><g id="elem_VMDetection"><rect codeLine="54" fill="#F1F1F1" height="80.5938" id="VMDetection" rx="2.5" ry="2.5" style="stroke:#181818;stroke-width:0.5;" width="206" x="606" y="620.52"/><ellipse cx="660.25" cy="636.52" fill="#ADD1B2" rx="11" ry="11" style="stroke:#181818;stroke-width:1.0;"/><path d="M663.2188,642.1606 Q662.6406,642.4575 662,642.5981 Q661.3594,642.7544 660.6563,642.7544 Q658.1563,642.7544 656.8281,641.1138 Q655.5156,639.4575 655.5156,636.3325 Q655.5156,633.2075 656.8281,631.5513 Q658.1563,629.895 660.6563,629.895 Q661.3594,629.895 662,630.0513 Q662.6563,630.2075 663.2188,630.5044 L663.2188,633.2231 Q662.5938,632.645 662,632.3794 Q661.4063,632.0981 660.7813,632.0981 Q659.4375,632.0981 658.75,633.1763 Q658.0625,634.2388 658.0625,636.3325 Q658.0625,638.4263 658.75,639.5044 Q659.4375,640.5669 660.7813,640.5669 Q661.4063,640.5669 662,640.3013 Q662.5938,640.02 663.2188,639.4419 L663.2188,642.1606 Z " fill="#000000"/><text fill="#000000" font-family="sans-serif" font-size="14" lengthAdjust="spacing" textLength="89" x="680.75" y="641.3667">VMDetection</text><line style="stroke:#181818;stroke-width:0.5;" x1="607" x2="811" y1="652.52" y2="652.52"/><text fill="#000000" font-family="sans-serif" font-size="14" lengthAdjust="spacing" textLength="194" x="612" y="669.5151">Erkennung von VM-Nutzung</text><line style="stroke:#181818;stroke-width:1.0;" x1="607" x2="811" y1="676.8169" y2="676.8169"/><ellipse cx="617" cy="690.4653" fill="#84BE84" rx="3" ry="3" style="stroke:#038048;stroke-width:1.0;"/><text fill="#000000" font-family="sans-serif" font-size="14" lengthAdjust="spacing" textLength="81" x="626" y="693.812">check(logs)</text></g><!--class NumberOfDisplays--><g id="elem_NumberOfDisplays"><rect codeLine="60" fill="#F1F1F1" height="80.5938" id="NumberOfDisplays" rx="2.5" ry="2.5" style="stroke:#181818;stroke-width:0.5;" width="253" x="847.5" y="620.52"/><ellipse cx="906.25" cy="636.52" fill="#ADD1B2" rx="11" ry="11" style="stroke:#181818;stroke-width:1.0;"/><path d="M909.2188,642.1606 Q908.6406,642.4575 908,642.5981 Q907.3594,642.7544 906.6563,642.7544 Q904.1563,642.7544 902.8281,641.1138 Q901.5156,639.4575 901.5156,636.3325 Q901.5156,633.2075 902.8281,631.5513 Q904.1563,629.895 906.6563,629.895 Q907.3594,629.895 908,630.0513 Q908.6563,630.2075 909.2188,630.5044 L909.2188,633.2231 Q908.5938,632.645 908,632.3794 Q907.4063,632.0981 906.7813,632.0981 Q905.4375,632.0981 904.75,633.1763 Q904.0625,634.2388 904.0625,636.3325 Q904.0625,638.4263 904.75,639.5044 Q905.4375,640.5669 906.7813,640.5669 Q907.4063,640.5669 908,640.3013 Q908.5938,640.02 909.2188,639.4419 L909.2188,642.1606 Z " fill="#000000"/><text fill="#000000" font-family="sans-serif" font-size="14" lengthAdjust="spacing" textLength="127" x="926.75" y="641.3667">NumberOfDisplays</text><line style="stroke:#181818;stroke-width:0.5;" x1="848.5" x2="1099.5" y1="652.52" y2="652.52"/><text fill="#000000" font-family="sans-serif" font-size="14" lengthAdjust="spacing" textLength="241" x="853.5" y="669.5151">Erkennung der Anzahl der Displays</text><line style="stroke:#181818;stroke-width:1.0;" x1="848.5" x2="1099.5" y1="676.8169" y2="676.8169"/><ellipse cx="858.5" cy="690.4653" fill="#84BE84" rx="3" ry="3" style="stroke:#038048;stroke-width:1.0;"/><text fill="#000000" font-family="sans-serif" font-size="14" lengthAdjust="spacing" textLength="81" x="867.5" y="693.812">check(logs)</text></g><!--class MLAnomalyDetector--><g id="elem_MLAnomalyDetector"><rect codeLine="66" fill="#F1F1F1" height="80.5938" id="MLAnomalyDetector" rx="2.5" ry="2.5" style="stroke:#181818;stroke-width:0.5;" width="310" x="1489" y="454.78"/><ellipse cx="1570.75" cy="470.78" fill="#ADD1B2" rx="11" ry="11" style="stroke:#181818;stroke-width:1.0;"/><path d="M1573.7188,476.4206 Q1573.1406,476.7175 1572.5,476.8581 Q1571.8594,477.0144 1571.1563,477.0144 Q1568.6563,477.0144 1567.3281,475.3738 Q1566.0156,473.7175 1566.0156,470.5925 Q1566.0156,467.4675 1567.3281,465.8113 Q1568.6563,464.155 1571.1563,464.155 Q1571.8594,464.155 1572.5,464.3113 Q1573.1563,464.4675 1573.7188,464.7644 L1573.7188,467.4831 Q1573.0938,466.905 1572.5,466.6394 Q1571.9063,466.3581 1571.2813,466.3581 Q1569.9375,466.3581 1569.25,467.4363 Q1568.5625,468.4988 1568.5625,470.5925 Q1568.5625,472.6863 1569.25,473.7644 Q1569.9375,474.8269 1571.2813,474.8269 Q1571.9063,474.8269 1572.5,474.5613 Q1573.0938,474.28 1573.7188,473.7019 L1573.7188,476.4206 Z " fill="#000000"/><text fill="#000000" font-family="sans-serif" font-size="14" lengthAdjust="spacing" textLength="138" x="1591.25" y="475.6267">MLAnomalyDetector</text><line style="stroke:#181818;stroke-width:0.5;" x1="1490" x2="1798" y1="486.78" y2="486.78"/><text fill="#000000" font-family="sans-serif" font-size="14" lengthAdjust="spacing" textLength="298" x="1495" y="503.7751">Nutzt ML-Modell(e) zur Anomalieerkennung</text><line style="stroke:#181818;stroke-width:1.0;" x1="1490" x2="1798" y1="511.0769" y2="511.0769"/><ellipse cx="1500" cy="524.7253" fill="#84BE84" rx="3" ry="3" style="stroke:#038048;stroke-width:1.0;"/><text fill="#000000" font-family="sans-serif" font-size="14" lengthAdjust="spacing" textLength="161" x="1509" y="528.072">detect_anomalies(logs)</text></g><!--class SystemPatterns--><g id="elem_SystemPatterns"><rect codeLine="72" fill="#F1F1F1" height="80.5938" id="SystemPatterns" rx="2.5" ry="2.5" style="stroke:#181818;stroke-width:0.5;" width="230" x="1767" y="620.52"/><ellipse cx="1823.25" cy="636.52" fill="#ADD1B2" rx="11" ry="11" style="stroke:#181818;stroke-width:1.0;"/><path d="M1826.2188,642.1606 Q1825.6406,642.4575 1825,642.5981 Q1824.3594,642.7544 1823.6563,642.7544 Q1821.1563,642.7544 1819.8281,641.1138 Q1818.5156,639.4575 1818.5156,636.3325 Q1818.5156,633.2075 1819.8281,631.5513 Q1821.1563,629.895 1823.6563,629.895 Q1824.3594,629.895 1825,630.0513 Q1825.6563,630.2075 1826.2188,630.5044 L1826.2188,633.2231 Q1825.5938,632.645 1825,632.3794 Q1824.4063,632.0981 1823.7813,632.0981 Q1822.4375,632.0981 1821.75,633.1763 Q1821.0625,634.2388 1821.0625,636.3325 Q1821.0625,638.4263 1821.75,639.5044 Q1822.4375,640.5669 1823.7813,640.5669 Q1824.4063,640.5669 1825,640.3013 Q1825.5938,640.02 1826.2188,639.4419 L1826.2188,642.1606 Z " fill="#000000"/><text fill="#000000" font-family="sans-serif" font-size="14" lengthAdjust="spacing" textLength="109" x="1843.75" y="641.3667">SystemPatterns</text><line style="stroke:#181818;stroke-width:0.5;" x1="1768" x2="1996" y1="652.52" y2="652.52"/><text fill="#000000" font-family="sans-serif" font-size="14" lengthAdjust="spacing" textLength="218" x="1773" y="669.5151">Erkennung von Systemmustern</text><line style="stroke:#181818;stroke-width:1.0;" x1="1768" x2="1996" y1="676.8169" y2="676.8169"/><ellipse cx="1778" cy="690.4653" fill="#84BE84" rx="3" ry="3" style="stroke:#038048;stroke-width:1.0;"/><text fill="#000000" font-family="sans-serif" font-size="14" lengthAdjust="spacing" textLength="146" x="1787" y="693.812">check_patterns(logs)</text></g><!--class UserPatterns--><g id="elem_UserPatterns"><rect codeLine="78" fill="#F1F1F1" height="80.5938" id="UserPatterns" rx="2.5" ry="2.5" style="stroke:#181818;stroke-width:0.5;" width="243" x="2031.5" y="620.52"/><ellipse cx="2103.75" cy="636.52" fill="#ADD1B2" rx="11" ry="11" style="stroke:#181818;stroke-width:1.0;"/><path d="M2106.7188,642.1606 Q2106.1406,642.4575 2105.5,642.5981 Q2104.8594,642.7544 2104.1563,642.7544 Q2101.6563,642.7544 2100.3281,641.1138 Q2099.0156,639.4575 2099.0156,636.3325 Q2099.0156,633.2075 2100.3281,631.5513 Q2101.6563,629.895 2104.1563,629.895 Q2104.8594,629.895 2105.5,630.0513 Q2106.1563,630.2075 2106.7188,630.5044 L2106.7188,633.2231 Q2106.0938,632.645 2105.5,632.3794 Q2104.9063,632.0981 2104.2813,632.0981 Q2102.9375,632.0981 2102.25,633.1763 Q2101.5625,634.2388 2101.5625,636.3325 Q2101.5625,638.4263 2102.25,639.5044 Q2102.9375,640.5669 2104.2813,640.5669 Q2104.9063,640.5669 2105.5,640.3013 Q2106.0938,640.02 2106.7188,639.4419 L2106.7188,642.1606 Z " fill="#000000"/><text fill="#000000" font-family="sans-serif" font-size="14" lengthAdjust="spacing" textLength="90" x="2124.25" y="641.3667">UserPatterns</text><line style="stroke:#181818;stroke-width:0.5;" x1="2032.5" x2="2273.5" y1="652.52" y2="652.52"/><text fill="#000000" font-family="sans-serif" font-size="14" lengthAdjust="spacing" textLength="231" x="2037.5" y="669.5151">Erkennung von Benutzermustern</text><line style="stroke:#181818;stroke-width:1.0;" x1="2032.5" x2="2273.5" y1="676.8169" y2="676.8169"/><ellipse cx="2042.5" cy="690.4653" fill="#84BE84" rx="3" ry="3" style="stroke:#038048;stroke-width:1.0;"/><text fill="#000000" font-family="sans-serif" font-size="14" lengthAdjust="spacing" textLength="146" x="2051.5" y="693.812">check_patterns(logs)</text></g><!--class AIAnomalyDetector--><g id="elem_AIAnomalyDetector"><rect codeLine="84" fill="#F1F1F1" height="80.5938" id="AIAnomalyDetector" rx="2.5" ry="2.5" style="stroke:#181818;stroke-width:0.5;" width="396" x="1051" y="454.78"/><ellipse cx="1179.25" cy="470.78" fill="#ADD1B2" rx="11" ry="11" style="stroke:#181818;stroke-width:1.0;"/><path d="M1182.2188,476.4206 Q1181.6406,476.7175 1181,476.8581 Q1180.3594,477.0144 1179.6563,477.0144 Q1177.1563,477.0144 1175.8281,475.3738 Q1174.5156,473.7175 1174.5156,470.5925 Q1174.5156,467.4675 1175.8281,465.8113 Q1177.1563,464.155 1179.6563,464.155 Q1180.3594,464.155 1181,464.3113 Q1181.6563,464.4675 1182.2188,464.7644 L1182.2188,467.4831 Q1181.5938,466.905 1181,466.6394 Q1180.4063,466.3581 1179.7813,466.3581 Q1178.4375,466.3581 1177.75,467.4363 Q1177.0625,468.4988 1177.0625,470.5925 Q1177.0625,472.6863 1177.75,473.7644 Q1178.4375,474.8269 1179.7813,474.8269 Q1180.4063,474.8269 1181,474.5613 Q1181.5938,474.28 1182.2188,473.7019 L1182.2188,476.4206 Z " fill="#000000"/><text fill="#000000" font-family="sans-serif" font-size="14" lengthAdjust="spacing" textLength="131" x="1199.75" y="475.6267">AIAnomalyDetector</text><line style="stroke:#181818;stroke-width:0.5;" x1="1052" x2="1446" y1="486.78" y2="486.78"/><text fill="#000000" font-family="sans-serif" font-size="14" lengthAdjust="spacing" textLength="384" x="1057" y="503.7751">Nutzt externe KI (z.B. ChatGPT) zur Anomalieerkennung</text><line style="stroke:#181818;stroke-width:1.0;" x1="1052" x2="1446" y1="511.0769" y2="511.0769"/><ellipse cx="1062" cy="524.7253" fill="#84BE84" rx="3" ry="3" style="stroke:#038048;stroke-width:1.0;"/><text fill="#000000" font-family="sans-serif" font-size="14" lengthAdjust="spacing" textLength="161" x="1071" y="528.072">detect_anomalies(logs)</text></g><!--class CheckingQuizAnswersUsingAI--><g id="elem_CheckingQuizAnswersUsingAI"><rect codeLine="90" fill="#F1F1F1" height="80.5938" id="CheckingQuizAnswersUsingAI" rx="2.5" ry="2.5" style="stroke:#181818;stroke-width:0.5;" width="349" x="1383.5" y="620.52"/><ellipse cx="1450.75" cy="636.52" fill="#ADD1B2" rx="11" ry="11" style="stroke:#181818;stroke-width:1.0;"/><path d="M1453.7188,642.1606 Q1453.1406,642.4575 1452.5,642.5981 Q1451.8594,642.7544 1451.1563,642.7544 Q1448.6563,642.7544 1447.3281,641.1138 Q1446.0156,639.4575 1446.0156,636.3325 Q1446.0156,633.2075 1447.3281,631.5513 Q1448.6563,629.895 1451.1563,629.895 Q1451.8594,629.895 1452.5,630.0513 Q1453.1563,630.2075 1453.7188,630.5044 L1453.7188,633.2231 Q1453.0938,632.645 1452.5,632.3794 Q1451.9063,632.0981 1451.2813,632.0981 Q1449.9375,632.0981 1449.25,633.1763 Q1448.5625,634.2388 1448.5625,636.3325 Q1448.5625,638.4263 1449.25,639.5044 Q1449.9375,640.5669 1451.2813,640.5669 Q1451.9063,640.5669 1452.5,640.3013 Q1453.0938,640.02 1453.7188,639.4419 L1453.7188,642.1606 Z " fill="#000000"/><text fill="#000000" font-family="sans-serif" font-size="14" lengthAdjust="spacing" textLength="206" x="1471.25" y="641.3667">CheckingQuizAnswersUsingAI</text><line style="stroke:#181818;stroke-width:0.5;" x1="1384.5" x2="1731.5" y1="652.52" y2="652.52"/><text fill="#000000" font-family="sans-serif" font-size="14" lengthAdjust="spacing" textLength="337" x="1389.5" y="669.5151">&#220;berpr&#252;fung der Klausurantworten mithilfe von KI</text><line style="stroke:#181818;stroke-width:1.0;" x1="1384.5" x2="1731.5" y1="676.8169" y2="676.8169"/><ellipse cx="1394.5" cy="690.4653" fill="#84BE84" rx="3" ry="3" style="stroke:#038048;stroke-width:1.0;"/><text fill="#000000" font-family="sans-serif" font-size="14" lengthAdjust="spacing" textLength="146" x="1403.5" y="693.812">check_answers(logs)</text></g><!--class ResultAggregator--><g id="elem_ResultAggregator"><rect codeLine="96" fill="#F1F1F1" height="96.8906" id="ResultAggregator" rx="2.5" ry="2.5" style="stroke:#181818;stroke-width:0.5;" width="214" x="1135" y="612.38"/><ellipse cx="1177.45" cy="628.38" fill="#ADD1B2" rx="11" ry="11" style="stroke:#181818;stroke-width:1.0;"/><path d="M1180.4188,634.0206 Q1179.8406,634.3175 1179.2,634.4581 Q1178.5594,634.6144 1177.8563,634.6144 Q1175.3563,634.6144 1174.0281,632.9738 Q1172.7156,631.3175 1172.7156,628.1925 Q1172.7156,625.0675 1174.0281,623.4113 Q1175.3563,621.755 1177.8563,621.755 Q1178.5594,621.755 1179.2,621.9113 Q1179.8563,622.0675 1180.4188,622.3644 L1180.4188,625.0831 Q1179.7938,624.505 1179.2,624.2394 Q1178.6063,623.9581 1177.9813,623.9581 Q1176.6375,623.9581 1175.95,625.0363 Q1175.2625,626.0988 1175.2625,628.1925 Q1175.2625,630.2863 1175.95,631.3644 Q1176.6375,632.4269 1177.9813,632.4269 Q1178.6063,632.4269 1179.2,632.1613 Q1179.7938,631.88 1180.4188,631.3019 L1180.4188,634.0206 Z " fill="#000000"/><text fill="#000000" font-family="sans-serif" font-size="14" lengthAdjust="spacing" textLength="121" x="1197.55" y="633.2267">ResultAggregator</text><line style="stroke:#181818;stroke-width:0.5;" x1="1136" x2="1348" y1="644.38" y2="644.38"/><text fill="#000000" font-family="sans-serif" font-size="14" lengthAdjust="spacing" textLength="186" x="1141" y="661.3751">Aggregiert Anomalie-Daten</text><text fill="#000000" font-family="sans-serif" font-size="14" lengthAdjust="spacing" textLength="202" x="1141" y="677.672">Bereitet finale Ergebnisse auf</text><line style="stroke:#181818;stroke-width:1.0;" x1="1136" x2="1348" y1="684.9738" y2="684.9738"/><ellipse cx="1146" cy="698.6222" fill="#84BE84" rx="3" ry="3" style="stroke:#038048;stroke-width:1.0;"/><text fill="#000000" font-family="sans-serif" font-size="14" lengthAdjust="spacing" textLength="182" x="1155" y="701.9689">aggregate_results(results)</text></g><!--link LogParser to DataDistributor--><g id="link_LogParser_DataDistributor"><path codeLine="109" d="M996.49,194.57 C1050.74,220.12 1109.2919,247.6934 1159.2719,271.2334 " fill="none" id="LogParser-to-DataDistributor" style="stroke:#181818;stroke-width:1.0;"/><polygon fill="#181818" points="1164.7,273.79,1158.2623,266.3364,1160.1766,271.6595,1154.8535,273.5739,1164.7,273.79" style="stroke:#181818;stroke-width:1.0;"/><text fill="#000000" font-family="sans-serif" font-size="13" lengthAdjust="spacing" textLength="55" x="1100" y="240.2569">sends to</text></g><!--link QuizAnswersPrep to DataDistributor--><g id="link_QuizAnswersPrep_DataDistributor"><path codeLine="110" d="M1249,197.4 C1249,222.3 1249,245.07 1249,267.73 " fill="none" id="QuizAnswersPrep-to-DataDistributor" style="stroke:#181818;stroke-width:1.0;"/><polygon fill="#181818" points="1249,273.73,1253,264.73,1249,268.73,1245,264.73,1249,273.73" style="stroke:#181818;stroke-width:1.0;"/><text fill="#000000" font-family="sans-serif" font-size="13" lengthAdjust="spacing" textLength="55" x="1250" y="240.2569">sends to</text></g><!--link FutureInfos to DataDistributor--><g id="link_FutureInfos_DataDistributor"><path codeLine="111" d="M1542.17,197.64 C1479.32,222.48 1412.41,248.9147 1355.25,271.5047 " fill="none" id="FutureInfos-to-DataDistributor" style="stroke:#181818;stroke-width:1.0;"/><polygon fill="#181818" points="1349.67,273.71,1359.5102,274.1221,1354.32,271.8723,1356.5699,266.6821,1349.67,273.71" style="stroke:#181818;stroke-width:1.0;"/><text fill="#000000" font-family="sans-serif" font-size="13" lengthAdjust="spacing" textLength="55" x="1467" y="240.2569">sends to</text></g><!--link DataDistributor to RuleBasedAnomalyDetector--><g id="link_DataDistributor_RuleBasedAnomalyDetector"><path codeLine="113" d="M1148.63,355.23 C1074.13,384.73 978.5587,422.5813 904.0487,452.0813 " fill="none" id="DataDistributor-to-RuleBasedAnomalyDetector" style="stroke:#181818;stroke-width:1.0;"/><polygon fill="#181818" points="898.47,454.29,908.3105,454.6961,903.1189,452.4494,905.3655,447.2578,898.47,454.29" style="stroke:#181818;stroke-width:1.0;"/><text fill="#000000" font-family="sans-serif" font-size="13" lengthAdjust="spacing" textLength="84" x="1064" y="399.8469">distributes to</text></g><!--link DataDistributor to MLAnomalyDetector--><g id="link_DataDistributor_MLAnomalyDetector"><path codeLine="114" d="M1338.69,355.19 C1377.57,372.48 1423.58,393.03 1465,411.78 C1495.38,425.54 1523.13,438.2405 1552.6,451.8105 " fill="none" id="DataDistributor-to-MLAnomalyDetector" style="stroke:#181818;stroke-width:1.0;"/><polygon fill="#181818" points="1558.05,454.32,1551.5481,446.9224,1553.5084,452.2287,1548.202,454.189,1558.05,454.32" style="stroke:#181818;stroke-width:1.0;"/><text fill="#000000" font-family="sans-serif" font-size="13" lengthAdjust="spacing" textLength="84" x="1442" y="399.8469">distributes to</text></g><!--link DataDistributor to AIAnomalyDetector--><g id="link_DataDistributor_AIAnomalyDetector"><path codeLine="115" d="M1249,355.12 C1249,384.72 1249,418.98 1249,448.55 " fill="none" id="DataDistributor-to-AIAnomalyDetector" style="stroke:#181818;stroke-width:1.0;"/><polygon fill="#181818" points="1249,454.55,1253,445.55,1249,449.55,1245,445.55,1249,454.55" style="stroke:#181818;stroke-width:1.0;"/><text fill="#000000" font-family="sans-serif" font-size="13" lengthAdjust="spacing" textLength="84" x="1250" y="399.8469">distributes to</text></g><!--link RuleBasedAnomalyDetector to ResultAggregator--><g id="link_RuleBasedAnomalyDetector_ResultAggregator"><path codeLine="117" d="M908.87,535.85 C970.54,558.11 1048.63,586.5 1118,612.38 C1123.4,614.39 1123.3158,614.3433 1128.8858,616.4433 " fill="none" id="RuleBasedAnomalyDetector-to-ResultAggregator" style="stroke:#181818;stroke-width:1.0;"/><polygon fill="#181818" points="1134.5,618.56,1127.4898,611.6422,1129.8215,616.7961,1124.6675,619.1278,1134.5,618.56" style="stroke:#181818;stroke-width:1.0;"/><text fill="#000000" font-family="sans-serif" font-size="13" lengthAdjust="spacing" textLength="102" x="1031" y="578.4469">sends results to</text></g><!--link MLAnomalyDetector to ResultAggregator--><g id="link_MLAnomalyDetector_ResultAggregator"><path codeLine="118" d="M1488.68,534.52 C1459.74,543.42 1430.11,553.75 1403,565.38 C1372.92,578.28 1346.6512,592.5901 1319.6412,608.9601 " fill="none" id="MLAnomalyDetector-to-ResultAggregator" style="stroke:#181818;stroke-width:1.0;"/><polygon fill="#181818" points="1314.51,612.07,1324.28,610.826,1318.786,609.4785,1320.1335,603.9844,1314.51,612.07" style="stroke:#181818;stroke-width:1.0;"/><text fill="#000000" font-family="sans-serif" font-size="13" lengthAdjust="spacing" textLength="102" x="1404" y="578.4469">sends results to</text></g><!--link AIAnomalyDetector to ResultAggregator--><g id="link_AIAnomalyDetector_ResultAggregator"><path codeLine="119" d="M1247.31,535.72 C1246.32,558.72 1245.3371,581.8455 1244.2971,606.0955 " fill="none" id="AIAnomalyDetector-to-ResultAggregator" style="stroke:#181818;stroke-width:1.0;"/><polygon fill="#181818" points="1244.04,612.09,1248.422,603.2697,1244.2542,607.0946,1240.4293,602.9269,1244.04,612.09" style="stroke:#181818;stroke-width:1.0;"/><text fill="#000000" font-family="sans-serif" font-size="13" lengthAdjust="spacing" textLength="102" x="1246" y="578.4469">sends results to</text></g><!--link ResultAggregator to Output--><g id="link_ResultAggregator_Output"><path codeLine="120" d="M1242,709.76 C1242,734.52 1242,758.38 1242,781.84 " fill="none" id="ResultAggregator-to-Output" style="stroke:#181818;stroke-width:1.0;"/><polygon fill="#181818" points="1242,787.84,1246,778.84,1242,782.84,1238,778.84,1242,787.84" style="stroke:#181818;stroke-width:1.0;"/><text fill="#000000" font-family="sans-serif" font-size="13" lengthAdjust="spacing" textLength="180" x="1243" y="754.3369">sends aggregated results to</text></g><!--reverse link RuleBasedAnomalyDetector to FastTyping--><g id="link_RuleBasedAnomalyDetector_FastTyping"><path codeLine="122" d="M649.4198,527.5361 C550.6498,549.2461 426.17,578.41 308,612.38 C299.61,614.79 290.99,617.39 282.33,620.1 " fill="none" id="RuleBasedAnomalyDetector-backto-FastTyping" style="stroke:#181818;stroke-width:1.0;"/><polygon fill="#181818" points="661.14,524.96,654.4212,522.3413,649.4198,527.5361,656.1386,530.1548,661.14,524.96" style="stroke:#181818;stroke-width:1.0;"/><text fill="#000000" font-family="sans-serif" font-size="13" lengthAdjust="spacing" textLength="44" x="483" y="578.4469">checks</text></g><!--reverse link RuleBasedAnomalyDetector to SameHardware--><g id="link_RuleBasedAnomalyDetector_SameHardware"><path codeLine="123" d="M702.4007,540.8051 C647.6807,566.4051 587.61,594.51 532.85,620.12 " fill="none" id="RuleBasedAnomalyDetector-backto-SameHardware" style="stroke:#181818;stroke-width:1.0;"/><polygon fill="#181818" points="713.27,535.72,706.1403,534.6394,702.4007,540.8051,709.5304,541.8856,713.27,535.72" style="stroke:#181818;stroke-width:1.0;"/><text fill="#000000" font-family="sans-serif" font-size="13" lengthAdjust="spacing" textLength="44" x="644" y="578.4469">checks</text></g><!--reverse link RuleBasedAnomalyDetector to VMDetection--><g id="link_RuleBasedAnomalyDetector_VMDetection"><path codeLine="124" d="M770.7267,546.2618 C756.7767,571.9118 744.43,594.63 730.5,620.27 " fill="none" id="RuleBasedAnomalyDetector-backto-VMDetection" style="stroke:#181818;stroke-width:1.0;"/><polygon fill="#181818" points="776.46,535.72,770.0794,539.0798,770.7267,546.2618,777.1073,542.902,776.46,535.72" style="stroke:#181818;stroke-width:1.0;"/><text fill="#000000" font-family="sans-serif" font-size="13" lengthAdjust="spacing" textLength="44" x="759" y="578.4469">checks</text></g><!--reverse link RuleBasedAnomalyDetector to NumberOfDisplays--><g id="link_RuleBasedAnomalyDetector_NumberOfDisplays"><path codeLine="125" d="M849.3857,543.8938 C876.9557,569.5438 903.93,594.63 931.48,620.27 " fill="none" id="RuleBasedAnomalyDetector-backto-NumberOfDisplays" style="stroke:#181818;stroke-width:1.0;"/><polygon fill="#181818" points="840.6,535.72,842.2682,542.7355,849.3857,543.8938,847.7175,536.8784,840.6,535.72" style="stroke:#181818;stroke-width:1.0;"/><text fill="#000000" font-family="sans-serif" font-size="13" lengthAdjust="spacing" textLength="44" x="887" y="578.4469">checks</text></g><!--reverse link MLAnomalyDetector to SystemPatterns--><g id="link_MLAnomalyDetector_SystemPatterns"><path codeLine="127" d="M1711.4969,542.5207 C1748.7869,568.1707 1787.25,594.63 1824.51,620.27 " fill="none" id="MLAnomalyDetector-backto-SystemPatterns" style="stroke:#181818;stroke-width:1.0;"/><polygon fill="#181818" points="1701.61,535.72,1704.2865,542.416,1711.4969,542.5207,1708.8203,535.8247,1701.61,535.72" style="stroke:#181818;stroke-width:1.0;"/><text fill="#000000" font-family="sans-serif" font-size="13" lengthAdjust="spacing" textLength="44" x="1764" y="578.4469">checks</text></g><!--reverse link MLAnomalyDetector to UserPatterns--><g id="link_MLAnomalyDetector_UserPatterns"><path codeLine="128" d="M1784.5596,539.3707 C1855.7496,561.4907 1934.18,586.21 2014,612.38 C2021.63,614.88 2029.49,617.48 2037.41,620.13 " fill="none" id="MLAnomalyDetector-backto-UserPatterns" style="stroke:#181818;stroke-width:1.0;"/><polygon fill="#181818" points="1773.1,535.81,1777.6429,541.4102,1784.5596,539.3707,1780.0167,533.7705,1773.1,535.81" style="stroke:#181818;stroke-width:1.0;"/><text fill="#000000" font-family="sans-serif" font-size="13" lengthAdjust="spacing" textLength="44" x="1913" y="578.4469">checks</text></g><!--reverse link AIAnomalyDetector to CheckingQuizAnswersUsingAI--><g id="link_AIAnomalyDetector_CheckingQuizAnswersUsingAI"><path codeLine="130" d="M1458.4695,530.7219 C1482.9795,540.4119 1495.19,548.71 1515,565.38 C1531.68,579.41 1542.2,601.27 1548.66,620.43 " fill="none" id="AIAnomalyDetector-backto-CheckingQuizAnswersUsingAI" style="stroke:#181818;stroke-width:1.0;"/><polygon fill="#181818" points="1447.31,526.31,1451.4191,532.2358,1458.4695,530.7219,1454.3604,524.7961,1447.31,526.31" style="stroke:#181818;stroke-width:1.0;"/><text fill="#000000" font-family="sans-serif" font-size="13" lengthAdjust="spacing" textLength="44" x="1530" y="578.4469">checks</text></g><!--SRC=[lLPBRjim4Dtd54HNJWlb05aKiFDftSI9cr-1RWnQ6iciALBW9svSv2PTvXZP-M8TwcDRaYtBG58j95kQntblE9oPXFfJ6W7vS2aZCbJI1wsPYCZjapOGVo1_3WXUwIqfJ7-2C8holWZbK45I6BdBvrHhWciDgTAWrhwuwonEmiMBY0on8Y2FeAWQ0pDW74ANJ7zG4G3FFX0coBVRwojYuvADvvN-VagSpn57HCVT3ijVVIdGenaPEVgbfQYOF2z_LRHyjspU5Ne6IZknhHK534XNc9bK1WIXDapVN71gjLMXma2AZO9NcBrKqunY9t_kq5wpsYh_t1ghm6srRYrzRgUBLn4QXidYa2gcXacnHN39ehNeB5D7p17hfFSTaYisMmMVKaDFcJQAZQsHrGn-m2M18MiXpGn4u2GYmksm8C347BW0Cf21vT0e82XSm2X0Znrtgx9xtd3sxa0RF9z3bW1d0kfdxmOzzwY6e2jaJFdJAHZmwqA6Ql4QviSh0an6yYXL024Jp4aaD_YEYsO9wSgOUSuF0ztsH9rJRUwU4bTbAXcbfY24nVUFKX3jJmHmZaNa34tfk3cU_WJyQLi6jpI6hrG5CwgWaKF4WU7AYXJMRyVXOP3j3APz8uM7WNTbpHp_lftlAnkFGLs7cES9fqzwAu40fNV5d4vu-hEmVpicWylcD7NI3LfvUAGm6JfmYDN5SSfo3WgcxvAeMGySKcD02TsuIvbfRBKptHsUKP8lsfRAFJRJLaHw831aeDwFIhVVPilWjriK6rwVTEP7lIDoCg7co_3kV-xVYTE7jMEjXT-xuQRRhr1U_CNZaBYAM2HztgVfiXd7p4mO3o4DyaM_HLoBZjoIx0reoqqtYXH4j1xLx8EhpSlWUMdZALdrG6Kj6EiuvO2v4S5OCAt1JI2Df6dk6KOgPQ8x-RFElNXcnA-jIQmfqSNcyg9nI4pfIXTFdMI5D9kBLhGEjX1o_T6LcYg9mdN-M0sQdlUvrhgF2P88D34oDw_ESgr0wnDGAy2INTNIeRUsvsEo6WdM5jkqHhrexW6k7zyQE4TlfPhggAPh4OPymrOawcptmzS9xuUlMJfudhG5Q9dymJf-Lnm-UjxwC7DCqeElsy1A4yW-mFMnOHzShUKlmLktAULPRe4LZvinfLvLTLFVJGTfgDIh1Px_0G00]--></g></svg>