<svg xmlns="http://www.w3.org/2000/svg" xmlns:xlink="http://www.w3.org/1999/xlink" contentStyleType="text/css" height="1103px" preserveAspectRatio="none" style="width:3418px;height:1103px;background:#FFFFFF;" version="1.1" viewBox="0 0 3418 1103" width="3418px" zoomAndPan="magnify"><defs/><g><!--cluster Log Processing System--><g id="cluster_Log Processing System"><path d="M8.5,6 L194.5,6 A3.75,3.75 0 0 1 197,8.5 L204,28.2969 L3405.5,28.2969 A2.5,2.5 0 0 1 3408,30.7969 L3408,1094.3 A2.5,2.5 0 0 1 3405.5,1096.8 L8.5,1096.8 A2.5,2.5 0 0 1 6,1094.3 L6,8.5 A2.5,2.5 0 0 1 8.5,6 " fill="none" style="stroke:#000000;stroke-width:1.5;"/><line style="stroke:#000000;stroke-width:1.5;" x1="6" x2="204" y1="28.2969" y2="28.2969"/><text fill="#000000" font-family="sans-serif" font-size="14" font-weight="bold" lengthAdjust="spacing" textLength="185" x="10" y="20.9951">Log Processing System</text></g><!--cluster ZentralInfoPrep--><g id="cluster_ZentralInfoPrep"><path d="M1800.5,49 L1925.5,49 A3.75,3.75 0 0 1 1928,51.5 L1935,71.2969 L3220.5,71.2969 A2.5,2.5 0 0 1 3223,73.7969 L3223,376.9 A2.5,2.5 0 0 1 3220.5,379.4 L1800.5,379.4 A2.5,2.5 0 0 1 1798,376.9 L1798,51.5 A2.5,2.5 0 0 1 1800.5,49 " fill="none" style="stroke:#000000;stroke-width:1.5;"/><line style="stroke:#000000;stroke-width:1.5;" x1="1798" x2="1935" y1="71.2969" y2="71.2969"/><text fill="#000000" font-family="sans-serif" font-size="14" font-weight="bold" lengthAdjust="spacing" textLength="124" x="1802" y="63.9951">ZentralInfoPrep</text></g><!--cluster LogParser--><g id="cluster_LogParser"><rect fill="none" height="107.27" rx="2.5" ry="2.5" style="stroke:#181818;stroke-width:1.0;" width="295" x="1830" y="100"/><rect fill="none" height="10" style="stroke:#181818;stroke-width:1.0;" width="15" x="2105" y="105"/><rect fill="none" height="2" style="stroke:#181818;stroke-width:1.0;" width="4" x="2103" y="107"/><rect fill="none" height="2" style="stroke:#181818;stroke-width:1.0;" width="4" x="2103" y="111"/><text fill="#000000" font-family="sans-serif" font-size="14" font-weight="bold" lengthAdjust="spacing" textLength="81" x="1937" y="125.9951">LogParser</text></g><!--cluster QuizAnswersPrep--><g id="cluster_QuizAnswersPrep"><rect fill="none" height="107.27" rx="2.5" ry="2.5" style="stroke:#181818;stroke-width:1.0;" width="493" x="2165" y="100"/><rect fill="none" height="10" style="stroke:#181818;stroke-width:1.0;" width="15" x="2638" y="105"/><rect fill="none" height="2" style="stroke:#181818;stroke-width:1.0;" width="4" x="2636" y="107"/><rect fill="none" height="2" style="stroke:#181818;stroke-width:1.0;" width="4" x="2636" y="111"/><text fill="#000000" font-family="sans-serif" font-size="14" font-weight="bold" lengthAdjust="spacing" textLength="142" x="2340.5" y="125.9951">QuizAnswersPrep</text></g><!--cluster FutureInfos--><g id="cluster_FutureInfos"><rect fill="none" height="107.27" rx="2.5" ry="2.5" style="stroke:#181818;stroke-width:1.0;" width="493" x="2698" y="100"/><rect fill="none" height="10" style="stroke:#181818;stroke-width:1.0;" width="15" x="3171" y="105"/><rect fill="none" height="2" style="stroke:#181818;stroke-width:1.0;" width="4" x="3169" y="107"/><rect fill="none" height="2" style="stroke:#181818;stroke-width:1.0;" width="4" x="3169" y="111"/><text fill="#000000" font-family="sans-serif" font-size="14" font-weight="bold" lengthAdjust="spacing" textLength="91" x="2899" y="125.9951">FutureInfos</text></g><!--cluster DataDistributor--><g id="cluster_DataDistributor"><rect fill="none" height="92.13" rx="2.5" ry="2.5" style="stroke:#181818;stroke-width:1.0;" width="390" x="2107" y="255.27"/><rect fill="none" height="10" style="stroke:#181818;stroke-width:1.0;" width="15" x="2477" y="260.27"/><rect fill="none" height="2" style="stroke:#181818;stroke-width:1.0;" width="4" x="2475" y="262.27"/><rect fill="none" height="2" style="stroke:#181818;stroke-width:1.0;" width="4" x="2475" y="266.27"/><text fill="#000000" font-family="sans-serif" font-size="14" font-weight="bold" lengthAdjust="spacing" textLength="119" x="2242.5" y="281.2651">DataDistributor</text></g><!--cluster TestingPipeline--><g id="cluster_TestingPipeline"><path d="M32.5,428.4 L154.5,428.4 A3.75,3.75 0 0 1 157,430.9 L164,450.6969 L3381.5,450.6969 A2.5,2.5 0 0 1 3384,453.1969 L3384,913.17 A2.5,2.5 0 0 1 3381.5,915.67 L32.5,915.67 A2.5,2.5 0 0 1 30,913.17 L30,430.9 A2.5,2.5 0 0 1 32.5,428.4 " fill="none" style="stroke:#000000;stroke-width:1.5;"/><line style="stroke:#000000;stroke-width:1.5;" x1="30" x2="164" y1="450.6969" y2="450.6969"/><text fill="#000000" font-family="sans-serif" font-size="14" font-weight="bold" lengthAdjust="spacing" textLength="121" x="34" y="443.3951">TestingPipeline</text></g><!--cluster RuleBasedAnomalyDetector--><g id="cluster_RuleBasedAnomalyDetector"><rect fill="none" height="317.06" rx="2.5" ry="2.5" style="stroke:#181818;stroke-width:1.0;" width="1689" x="62" y="566.61"/><rect fill="none" height="10" style="stroke:#181818;stroke-width:1.0;" width="15" x="1731" y="571.61"/><rect fill="none" height="2" style="stroke:#181818;stroke-width:1.0;" width="4" x="1729" y="573.61"/><rect fill="none" height="2" style="stroke:#181818;stroke-width:1.0;" width="4" x="1729" y="577.61"/><text fill="#000000" font-family="sans-serif" font-size="14" font-weight="bold" lengthAdjust="spacing" textLength="218" x="797.5" y="592.6051">RuleBasedAnomalyDetector</text></g><!--cluster FastTyping--><g id="cluster_FastTyping"><rect fill="none" height="92.14" rx="2.5" ry="2.5" style="stroke:#181818;stroke-width:1.0;" width="308" x="378" y="751.53"/><rect fill="none" height="10" style="stroke:#181818;stroke-width:1.0;" width="15" x="666" y="756.53"/><rect fill="none" height="2" style="stroke:#181818;stroke-width:1.0;" width="4" x="664" y="758.53"/><rect fill="none" height="2" style="stroke:#181818;stroke-width:1.0;" width="4" x="664" y="762.53"/><text fill="#000000" font-family="sans-serif" font-size="14" font-weight="bold" lengthAdjust="spacing" textLength="86" x="489" y="777.5251">FastTyping</text></g><!--cluster SameHardware--><g id="cluster_SameHardware"><rect fill="none" height="92.14" rx="2.5" ry="2.5" style="stroke:#181818;stroke-width:1.0;" width="311" x="726" y="751.53"/><rect fill="none" height="10" style="stroke:#181818;stroke-width:1.0;" width="15" x="1017" y="756.53"/><rect fill="none" height="2" style="stroke:#181818;stroke-width:1.0;" width="4" x="1015" y="758.53"/><rect fill="none" height="2" style="stroke:#181818;stroke-width:1.0;" width="4" x="1015" y="762.53"/><text fill="#000000" font-family="sans-serif" font-size="14" font-weight="bold" lengthAdjust="spacing" textLength="120" x="821.5" y="777.5251">SameHardware</text></g><!--cluster VMDetection--><g id="cluster_VMDetection"><rect fill="none" height="92.14" rx="2.5" ry="2.5" style="stroke:#181818;stroke-width:1.0;" width="275" x="1077" y="751.53"/><rect fill="none" height="10" style="stroke:#181818;stroke-width:1.0;" width="15" x="1332" y="756.53"/><rect fill="none" height="2" style="stroke:#181818;stroke-width:1.0;" width="4" x="1330" y="758.53"/><rect fill="none" height="2" style="stroke:#181818;stroke-width:1.0;" width="4" x="1330" y="762.53"/><text fill="#000000" font-family="sans-serif" font-size="14" font-weight="bold" lengthAdjust="spacing" textLength="100" x="1164.5" y="777.5251">VMDetection</text></g><!--cluster NumberOfDisplays--><g id="cluster_NumberOfDisplays"><rect fill="none" height="92.14" rx="2.5" ry="2.5" style="stroke:#181818;stroke-width:1.0;" width="319" x="1392" y="751.53"/><rect fill="none" height="10" style="stroke:#181818;stroke-width:1.0;" width="15" x="1691" y="756.53"/><rect fill="none" height="2" style="stroke:#181818;stroke-width:1.0;" width="4" x="1689" y="758.53"/><rect fill="none" height="2" style="stroke:#181818;stroke-width:1.0;" width="4" x="1689" y="762.53"/><text fill="#000000" font-family="sans-serif" font-size="14" font-weight="bold" lengthAdjust="spacing" textLength="145" x="1479" y="777.5251">NumberOfDisplays</text></g><!--cluster MLAnomalyDetector--><g id="cluster_MLAnomalyDetector"><rect fill="none" height="191.13" rx="2.5" ry="2.5" style="stroke:#181818;stroke-width:1.0;" width="706" x="1791" y="479.4"/><rect fill="none" height="10" style="stroke:#181818;stroke-width:1.0;" width="15" x="2477" y="484.4"/><rect fill="none" height="2" style="stroke:#181818;stroke-width:1.0;" width="4" x="2475" y="486.4"/><rect fill="none" height="2" style="stroke:#181818;stroke-width:1.0;" width="4" x="2475" y="490.4"/><text fill="#000000" font-family="sans-serif" font-size="14" font-weight="bold" lengthAdjust="spacing" textLength="158" x="2065" y="505.3951">MLAnomalyDetector</text></g><!--cluster SystemPatterns--><g id="cluster_SystemPatterns"><rect fill="none" height="92.13" rx="2.5" ry="2.5" style="stroke:#181818;stroke-width:1.0;" width="141" x="1831" y="538.4"/><rect fill="none" height="10" style="stroke:#181818;stroke-width:1.0;" width="15" x="1952" y="543.4"/><rect fill="none" height="2" style="stroke:#181818;stroke-width:1.0;" width="4" x="1950" y="545.4"/><rect fill="none" height="2" style="stroke:#181818;stroke-width:1.0;" width="4" x="1950" y="549.4"/><text fill="#000000" font-family="sans-serif" font-size="14" font-weight="bold" lengthAdjust="spacing" textLength="125" x="1839" y="564.3951">SystemPatterns</text></g><!--cluster UserPatters--><g id="cluster_UserPatters"><rect fill="none" height="92.13" rx="2.5" ry="2.5" style="stroke:#181818;stroke-width:1.0;" width="110" x="2012" y="538.4"/><rect fill="none" height="10" style="stroke:#181818;stroke-width:1.0;" width="15" x="2102" y="543.4"/><rect fill="none" height="2" style="stroke:#181818;stroke-width:1.0;" width="4" x="2100" y="545.4"/><rect fill="none" height="2" style="stroke:#181818;stroke-width:1.0;" width="4" x="2100" y="549.4"/><text fill="#000000" font-family="sans-serif" font-size="14" font-weight="bold" lengthAdjust="spacing" textLength="94" x="2020" y="564.3951">UserPatters</text></g><!--cluster AIAnomalyDetector--><g id="cluster_AIAnomalyDetector"><rect fill="none" height="191.13" rx="2.5" ry="2.5" style="stroke:#181818;stroke-width:1.0;" width="815" x="2537" y="479.4"/><rect fill="none" height="10" style="stroke:#181818;stroke-width:1.0;" width="15" x="3332" y="484.4"/><rect fill="none" height="2" style="stroke:#181818;stroke-width:1.0;" width="4" x="3330" y="486.4"/><rect fill="none" height="2" style="stroke:#181818;stroke-width:1.0;" width="4" x="3330" y="490.4"/><text fill="#000000" font-family="sans-serif" font-size="14" font-weight="bold" lengthAdjust="spacing" textLength="151" x="2869" y="505.3951">AIAnomalyDetector</text></g><!--cluster CheckingQuizAnswersofAIUsing--><g id="cluster_CheckingQuizAnswersofAIUsing"><rect fill="none" height="92.13" rx="2.5" ry="2.5" style="stroke:#181818;stroke-width:1.0;" width="319" x="2577" y="538.4"/><rect fill="none" height="10" style="stroke:#181818;stroke-width:1.0;" width="15" x="2876" y="543.4"/><rect fill="none" height="2" style="stroke:#181818;stroke-width:1.0;" width="4" x="2874" y="545.4"/><rect fill="none" height="2" style="stroke:#181818;stroke-width:1.0;" width="4" x="2874" y="549.4"/><text fill="#000000" font-family="sans-serif" font-size="14" font-weight="bold" lengthAdjust="spacing" textLength="253" x="2610" y="564.3951">CheckingQuizAnswersofAIUsing</text></g><!--cluster ResultAggregator--><g id="cluster_ResultAggregator"><rect fill="none" height="107.26" rx="2.5" ry="2.5" style="stroke:#181818;stroke-width:1.0;" width="285" x="2212" y="743.97"/><rect fill="none" height="10" style="stroke:#181818;stroke-width:1.0;" width="15" x="2477" y="748.97"/><rect fill="none" height="2" style="stroke:#181818;stroke-width:1.0;" width="4" x="2475" y="750.97"/><rect fill="none" height="2" style="stroke:#181818;stroke-width:1.0;" width="4" x="2475" y="754.97"/><text fill="#000000" font-family="sans-serif" font-size="14" font-weight="bold" lengthAdjust="spacing" textLength="139" x="2285" y="769.9651">ResultAggregator</text></g><!--cluster Output--><g id="cluster_Output"><rect fill="none" height="92.13" rx="2.5" ry="2.5" style="stroke:#181818;stroke-width:1.0;" width="360" x="2137" y="972.67"/><rect fill="none" height="10" style="stroke:#181818;stroke-width:1.0;" width="15" x="2477" y="977.67"/><rect fill="none" height="2" style="stroke:#181818;stroke-width:1.0;" width="4" x="2475" y="979.67"/><rect fill="none" height="2" style="stroke:#181818;stroke-width:1.0;" width="4" x="2475" y="983.67"/><text fill="#000000" font-family="sans-serif" font-size="14" font-weight="bold" lengthAdjust="spacing" textLength="54" x="2290" y="998.6651">Output</text></g><g id="elem_GMN5"><path d="M1854,143 L1854,183.2656 L2082,183.2656 L2082,153 L2072,143 L1854,143 " fill="#FEFFDD" style="stroke:#181818;stroke-width:0.5;"/><path d="M2072,143 L2072,153 L2082,153 L2072,143 " fill="#FEFFDD" style="stroke:#181818;stroke-width:1.0;"/><text fill="#000000" font-family="sans-serif" font-size="13" lengthAdjust="spacing" textLength="207" x="1860" y="160.0669">- Empf&#228;ngt und verarbeitet Logs</text><text fill="#000000" font-family="sans-serif" font-size="13" lengthAdjust="spacing" textLength="170" x="1860" y="175.1997">- Wandelt Logs in JSON um</text></g><g id="elem_GMN9"><path d="M2189.5,143 L2189.5,183.2656 L2614.5,183.2656 L2614.5,153 L2604.5,143 L2189.5,143 " fill="#FEFFDD" style="stroke:#181818;stroke-width:0.5;"/><path d="M2604.5,143 L2604.5,153 L2614.5,153 L2604.5,143 " fill="#FEFFDD" style="stroke:#181818;stroke-width:1.0;"/><text fill="#000000" font-family="sans-serif" font-size="13" lengthAdjust="spacing" textLength="404" x="2195.5" y="160.0669">- Empf&#228;ngt und verarbeitet die Antworten auf die Klausurfragen</text><text fill="#000000" font-family="sans-serif" font-size="13" lengthAdjust="spacing" textLength="170" x="2195.5" y="175.1997">- Wandelt Logs in JSON um</text></g><g id="elem_GMN13"><path d="M2722.5,143 L2722.5,183.2656 L3147.5,183.2656 L3147.5,153 L3137.5,143 L2722.5,143 " fill="#FEFFDD" style="stroke:#181818;stroke-width:0.5;"/><path d="M3137.5,143 L3137.5,153 L3147.5,153 L3137.5,143 " fill="#FEFFDD" style="stroke:#181818;stroke-width:1.0;"/><text fill="#000000" font-family="sans-serif" font-size="13" lengthAdjust="spacing" textLength="404" x="2728.5" y="160.0669">- Empf&#228;ngt und verarbeitet die Antworten auf die Klausurfragen</text><text fill="#000000" font-family="sans-serif" font-size="13" lengthAdjust="spacing" textLength="170" x="2728.5" y="175.1997">- Wandelt Logs in JSON um</text></g><g id="elem_GMN17"><path d="M2130.5,298.27 L2130.5,323.4028 L2453.5,323.4028 L2453.5,308.27 L2443.5,298.27 L2130.5,298.27 " fill="#FEFFDD" style="stroke:#181818;stroke-width:0.5;"/><path d="M2443.5,298.27 L2443.5,308.27 L2453.5,308.27 L2443.5,298.27 " fill="#FEFFDD" style="stroke:#181818;stroke-width:1.0;"/><text fill="#000000" font-family="sans-serif" font-size="13" lengthAdjust="spacing" textLength="302" x="2136.5" y="315.3369">- Verteilt notwendige Daten an einzelne Module</text></g><g id="elem_GMN24"><path d="M85.5,794.53 L85.5,819.6628 L354.5,819.6628 L354.5,804.53 L344.5,794.53 L85.5,794.53 " fill="#FEFFDD" style="stroke:#181818;stroke-width:0.5;"/><path d="M344.5,794.53 L344.5,804.53 L354.5,804.53 L344.5,794.53 " fill="#FEFFDD" style="stroke:#181818;stroke-width:1.0;"/><text fill="#000000" font-family="sans-serif" font-size="13" lengthAdjust="spacing" textLength="248" x="91.5" y="811.5969">- Pr&#252;ft Logs gegen vordefinierte Regeln</text></g><g id="elem_GMN28"><path d="M401.5,794.53 L401.5,819.6628 L642.5,819.6628 L642.5,804.53 L632.5,794.53 L401.5,794.53 " fill="#FEFFDD" style="stroke:#181818;stroke-width:0.5;"/><path d="M632.5,794.53 L632.5,804.53 L642.5,804.53 L632.5,794.53 " fill="#FEFFDD" style="stroke:#181818;stroke-width:1.0;"/><text fill="#000000" font-family="sans-serif" font-size="13" lengthAdjust="spacing" textLength="220" x="407.5" y="811.5969">- Erkennung von schneller Eingabe</text></g><g id="elem_GMN32"><path d="M750,794.53 L750,819.6628 L994,819.6628 L994,804.53 L984,794.53 L750,794.53 " fill="#FEFFDD" style="stroke:#181818;stroke-width:0.5;"/><path d="M984,794.53 L984,804.53 L994,804.53 L984,794.53 " fill="#FEFFDD" style="stroke:#181818;stroke-width:1.0;"/><text fill="#000000" font-family="sans-serif" font-size="13" lengthAdjust="spacing" textLength="223" x="756" y="811.5969">- Erkennung von gleicher Hardware</text></g><g id="elem_GMN36"><path d="M1101,794.53 L1101,819.6628 L1309,819.6628 L1309,804.53 L1299,794.53 L1101,794.53 " fill="#FEFFDD" style="stroke:#181818;stroke-width:0.5;"/><path d="M1299,794.53 L1299,804.53 L1309,804.53 L1299,794.53 " fill="#FEFFDD" style="stroke:#181818;stroke-width:1.0;"/><text fill="#000000" font-family="sans-serif" font-size="13" lengthAdjust="spacing" textLength="187" x="1107" y="811.5969">- Erkennung von VM-Nutzung</text></g><g id="elem_GMN40"><path d="M1416,794.53 L1416,819.6628 L1668,819.6628 L1668,804.53 L1658,794.53 L1416,794.53 " fill="#FEFFDD" style="stroke:#181818;stroke-width:0.5;"/><path d="M1658,794.53 L1658,804.53 L1668,804.53 L1658,794.53 " fill="#FEFFDD" style="stroke:#181818;stroke-width:1.0;"/><text fill="#000000" font-family="sans-serif" font-size="13" lengthAdjust="spacing" textLength="231" x="1422" y="811.5969">- Erkennung der Anzahl der Displays</text></g><g id="elem_GMN48"><path d="M2146.5,581.4 L2146.5,606.5328 L2453.5,606.5328 L2453.5,591.4 L2443.5,581.4 L2146.5,581.4 " fill="#FEFFDD" style="stroke:#181818;stroke-width:0.5;"/><path d="M2443.5,581.4 L2443.5,591.4 L2453.5,591.4 L2443.5,581.4 " fill="#FEFFDD" style="stroke:#181818;stroke-width:1.0;"/><text fill="#000000" font-family="sans-serif" font-size="13" lengthAdjust="spacing" textLength="286" x="2152.5" y="598.4669">- Nutzt ML-Modell(e) zur Anomalieerkennung</text></g><g id="elem_GMN52"><path d="M1877,581.4 L1877,606.5328 L1907,606.5328 L1907,591.4 L1897,581.4 L1877,581.4 " fill="#FEFFDD" style="stroke:#181818;stroke-width:0.5;"/><path d="M1897,581.4 L1897,591.4 L1907,591.4 L1897,581.4 " fill="#FEFFDD" style="stroke:#181818;stroke-width:1.0;"/><text fill="#000000" font-family="sans-serif" font-size="13" lengthAdjust="spacing" textLength="5" x="1883" y="598.4669">-</text></g><g id="elem_GMN56"><path d="M2041,581.4 L2041,606.5328 L2071,606.5328 L2071,591.4 L2061,581.4 L2041,581.4 " fill="#FEFFDD" style="stroke:#181818;stroke-width:0.5;"/><path d="M2061,581.4 L2061,591.4 L2071,591.4 L2061,581.4 " fill="#FEFFDD" style="stroke:#181818;stroke-width:1.0;"/><text fill="#000000" font-family="sans-serif" font-size="13" lengthAdjust="spacing" textLength="5" x="2047" y="598.4669">-</text></g><g id="elem_GMN60"><path d="M2923,581.4 L2923,606.5328 L3309,606.5328 L3309,591.4 L3299,581.4 L2923,581.4 " fill="#FEFFDD" style="stroke:#181818;stroke-width:0.5;"/><path d="M3299,581.4 L3299,591.4 L3309,591.4 L3299,581.4 " fill="#FEFFDD" style="stroke:#181818;stroke-width:1.0;"/><text fill="#000000" font-family="sans-serif" font-size="13" lengthAdjust="spacing" textLength="365" x="2929" y="598.4669">- Nutzt externe KI (z.B. ChatGPT) zur Anomalieerkennung</text></g><g id="elem_GMN64"><path d="M2601,581.4 L2601,606.5328 L2853,606.5328 L2853,591.4 L2843,581.4 L2601,581.4 " fill="#FEFFDD" style="stroke:#181818;stroke-width:0.5;"/><path d="M2843,581.4 L2843,591.4 L2853,591.4 L2843,581.4 " fill="#FEFFDD" style="stroke:#181818;stroke-width:1.0;"/><text fill="#000000" font-family="sans-serif" font-size="13" lengthAdjust="spacing" textLength="231" x="2607" y="598.4669">- Erkennung der Anzahl der Displays</text></g><g id="elem_GMN74"><path d="M2236.5,786.97 L2236.5,827.2356 L2453.5,827.2356 L2453.5,796.97 L2443.5,786.97 L2236.5,786.97 " fill="#FEFFDD" style="stroke:#181818;stroke-width:0.5;"/><path d="M2443.5,786.97 L2443.5,796.97 L2453.5,796.97 L2443.5,786.97 " fill="#FEFFDD" style="stroke:#181818;stroke-width:1.0;"/><text fill="#000000" font-family="sans-serif" font-size="13" lengthAdjust="spacing" textLength="184" x="2242.5" y="804.0369">- Aggregiert Anomalie-Daten</text><text fill="#000000" font-family="sans-serif" font-size="13" lengthAdjust="spacing" textLength="196" x="2242.5" y="819.1697">- Bereitet finale Ergebnisse auf</text></g><g id="elem_GMN79"><path d="M2160.5,1015.67 L2160.5,1040.8028 L2453.5,1040.8028 L2453.5,1025.67 L2443.5,1015.67 L2160.5,1015.67 " fill="#FEFFDD" style="stroke:#181818;stroke-width:0.5;"/><path d="M2443.5,1015.67 L2443.5,1025.67 L2453.5,1025.67 L2443.5,1015.67 " fill="#FEFFDD" style="stroke:#181818;stroke-width:1.0;"/><text fill="#000000" font-family="sans-serif" font-size="13" lengthAdjust="spacing" textLength="272" x="2166.5" y="1032.7369">- Pr&#228;sentiert oder speichert die Ergebnisse</text></g><!--link LogParser to GMN5--><g id="link_LogParser_GMN5"><path d="M2116.34,163.14 C2113.28,163.14 2099.95,163.14 2082.44,163.14 " fill="none" id="LogParser-GMN5" style="stroke:#181818;stroke-width:1.0;stroke-dasharray:7.0,7.0;"/></g><!--link QuizAnswersPrep to GMN9--><g id="link_QuizAnswersPrep_GMN9"><path d="M2649.36,163.14 C2646.42,163.14 2633.5,163.14 2614.99,163.14 " fill="none" id="QuizAnswersPrep-GMN9" style="stroke:#181818;stroke-width:1.0;stroke-dasharray:7.0,7.0;"/></g><!--link FutureInfos to GMN13--><g id="link_FutureInfos_GMN13"><path d="M3182.36,163.14 C3179.42,163.14 3166.5,163.14 3147.99,163.14 " fill="none" id="FutureInfos-GMN13" style="stroke:#181818;stroke-width:1.0;stroke-dasharray:7.0,7.0;"/></g><!--link DataDistributor to GMN17--><g id="link_DataDistributor_GMN17"><path d="M2488.34,310.84 C2485.32,310.84 2472.08,310.84 2453.78,310.84 " fill="none" id="DataDistributor-GMN17" style="stroke:#181818;stroke-width:1.0;stroke-dasharray:7.0,7.0;"/></g><!--link LogParser to DataDistributor--><g id="link_LogParser_DataDistributor"><path d="M2125.0615,177.3557 C2125.1169,177.4388 2125.1727,177.5222 2125.2287,177.6058 C2125.3408,177.7731 2125.4539,177.9413 2125.568,178.1106 C2126.0245,178.7878 2126.4978,179.4809 2126.9874,180.1881 C2128.9459,183.0166 2131.1659,186.0691 2133.6237,189.2162 C2143.455,201.805 2157.09,215.91 2173,223.27 C2202.89,237.1 2443.27,218.7 2469,239.27 C2472.0838,241.735 2474.7139,244.6378 2476.9551,247.8363 C2478.0757,249.4355 2479.099,251.1086 2480.0332,252.8379 C2480.2668,253.2702 2480.4948,253.706 2480.7173,254.145 C2480.8286,254.3646 2480.9385,254.5849 2481.047,254.806 C2481.1013,254.9166 2478.5447,249.625 2478.5983,249.7359 " fill="none" id="LogParser-to-DataDistributor" style="stroke:#181818;stroke-width:1.0;"/><polygon fill="#181818" points="2481.2088,255.1382,2480.8945,245.2944,2479.0334,250.6363,2473.6915,248.7752,2481.2088,255.1382" style="stroke:#181818;stroke-width:1.0;"/></g><!--link QuizAnswersPrep to DataDistributor--><g id="link_QuizAnswersPrep_DataDistributor"><path d="M2640.1974,207.2748 C2640.1137,207.4719 2640.0292,207.6687 2639.9441,207.8653 C2639.6035,208.6518 2639.2515,209.4341 2638.8879,210.2108 C2638.1606,211.7643 2637.3865,213.2955 2636.5627,214.7924 C2634.9152,217.7864 2633.0688,220.6437 2631,223.27 C2608.49,251.85 2573.74,273.2675 2544.2513,287.6487 C2529.5069,294.8394 2516.0778,300.2709 2506.1517,303.9592 C2503.6702,304.8813 2501.4076,305.6944 2499.3981,306.3988 C2498.8958,306.5749 2498.4092,306.7442 2497.939,306.9067 C2497.7039,306.988 2503.1479,305.1197 2502.9211,305.1976 " fill="none" id="QuizAnswersPrep-to-DataDistributor" style="stroke:#181818;stroke-width:1.0;"/><polygon fill="#181818" points="2497.2461,307.1454,2507.0572,308.007,2501.9753,305.5222,2504.46,300.4403,2497.2461,307.1454" style="stroke:#181818;stroke-width:1.0;"/></g><!--link RuleBasedAnomalyDetector to GMN24--><g id="link_RuleBasedAnomalyDetector_GMN24"><path d="M1343.9,594.97 C1335.44,594.91 792.35,591.61 386,719.53 C328.33,737.69 266.83,775.16 237.51,794.3 " fill="none" id="RuleBasedAnomalyDetector-GMN24" style="stroke:#181818;stroke-width:1.0;stroke-dasharray:7.0,7.0;"/></g><!--link FastTyping to GMN28--><g id="link_FastTyping_GMN28"><path d="M677.33,807.1 C674.24,807.1 660.79,807.1 642.99,807.1 " fill="none" id="FastTyping-GMN28" style="stroke:#181818;stroke-width:1.0;stroke-dasharray:7.0,7.0;"/></g><!--link SameHardware to GMN32--><g id="link_SameHardware_GMN32"><path d="M1028.33,807.1 C1025.27,807.1 1011.89,807.1 994.16,807.1 " fill="none" id="SameHardware-GMN32" style="stroke:#181818;stroke-width:1.0;stroke-dasharray:7.0,7.0;"/></g><!--link VMDetection to GMN36--><g id="link_VMDetection_GMN36"><path d="M1343.33,807.1 C1340.22,807.1 1326.72,807.1 1309.28,807.1 " fill="none" id="VMDetection-GMN36" style="stroke:#181818;stroke-width:1.0;stroke-dasharray:7.0,7.0;"/></g><!--link NumberOfDisplays to GMN40--><g id="link_NumberOfDisplays_GMN40"><path d="M1702.34,807.1 C1699.32,807.1 1686.1,807.1 1668.46,807.1 " fill="none" id="NumberOfDisplays-GMN40" style="stroke:#181818;stroke-width:1.0;stroke-dasharray:7.0,7.0;"/></g><!--link RuleBasedAnomalyDetector to FastTyping--><g id="link_RuleBasedAnomalyDetector_FastTyping"><path d="M1343.91,594.98 C1336.28,595.7 847.37,642.14 734,719.53 C715.375,732.25 701.5175,753.42 692.2463,771.6413 C689.9284,776.1966 690.2948,775.0674 688.5474,779.076 " fill="none" id="RuleBasedAnomalyDetector-to-FastTyping" style="stroke:#181818;stroke-width:1.0;"/><polygon fill="#181818" points="686.1499,784.5762,693.413,777.9243,688.1478,779.9927,686.0794,774.7276,686.1499,784.5762" style="stroke:#181818;stroke-width:1.0;"/><text fill="#000000" font-family="sans-serif" font-size="13" lengthAdjust="spacing" textLength="66" x="779" y="707.5969">JSON Logs</text></g><!--link RuleBasedAnomalyDetector to SameHardware--><g id="link_RuleBasedAnomalyDetector_SameHardware"><path d="M1343.88,595 C1338.92,596.23 1179.33,636.39 1085,719.53 C1068.35,734.21 1054.69,754.98 1045.03,772.4962 C1042.615,776.8753 1040.45,781.051 1038.5508,784.8774 C1038.076,785.834 1037.6178,786.7687 1037.1764,787.6793 C1037.1213,787.7932 1039.6769,782.5043 1039.6223,782.6174 " fill="none" id="RuleBasedAnomalyDetector-to-SameHardware" style="stroke:#181818;stroke-width:1.0;"/><polygon fill="#181818" points="1037.0117,788.0197,1044.5291,781.6566,1039.1872,783.5178,1037.326,778.1759,1037.0117,788.0197" style="stroke:#181818;stroke-width:1.0;"/><text fill="#000000" font-family="sans-serif" font-size="13" lengthAdjust="spacing" textLength="66" x="1116" y="707.5969">JSON Logs</text></g><!--link RuleBasedAnomalyDetector to VMDetection--><g id="link_RuleBasedAnomalyDetector_VMDetection"><path d="M1344,595.12 C1344,598.265 1344,649.425 1344,700.5725 C1344,713.3594 1344,726.1455 1344,738.1804 C1344,741.1891 1344,744.1508 1344,747.0539 C1344,748.5055 1344,743.9424 1344,745.3631 " fill="none" id="RuleBasedAnomalyDetector-to-VMDetection" style="stroke:#181818;stroke-width:1.0;"/><polygon fill="#181818" points="1344,751.3631,1348,742.3631,1344,746.3631,1340,742.3631,1344,751.3631" style="stroke:#181818;stroke-width:1.0;"/><text fill="#000000" font-family="sans-serif" font-size="13" lengthAdjust="spacing" textLength="66" x="1345" y="707.5969">JSON Logs</text></g><!--link RuleBasedAnomalyDetector to NumberOfDisplays--><g id="link_RuleBasedAnomalyDetector_NumberOfDisplays"><path d="M1344.04,594.97 C1347.65,595.03 1578.97,599.26 1684,719.53 C1690.275,726.7175 1694.625,735.5013 1697.6144,744.6866 C1697.988,745.8347 1698.3405,746.9892 1698.6727,748.1475 C1698.8388,748.7267 1698.9999,749.3069 1699.1561,749.8878 C1699.2342,750.1782 1699.3111,750.4688 1699.3867,750.7596 C1699.4246,750.9049 1697.9742,745.2378 1698.0114,745.3832 " fill="none" id="RuleBasedAnomalyDetector-to-NumberOfDisplays" style="stroke:#181818;stroke-width:1.0;"/><polygon fill="#181818" points="1699.4993,751.1958,1701.1426,741.485,1698.2594,746.352,1693.3925,743.4688,1699.4993,751.1958" style="stroke:#181818;stroke-width:1.0;"/><text fill="#000000" font-family="sans-serif" font-size="13" lengthAdjust="spacing" textLength="66" x="1671" y="707.5969">JSON Logs</text></g><!--link MLAnomalyDetector to GMN48--><g id="link_MLAnomalyDetector_GMN48"><path d="M2488.34,593.97 C2485.32,593.97 2472.07,593.97 2453.89,593.97 " fill="none" id="MLAnomalyDetector-GMN48" style="stroke:#181818;stroke-width:1.0;stroke-dasharray:7.0,7.0;"/></g><!--link SystemPatterns to GMN52--><g id="link_SystemPatterns_GMN52"><path d="M1941.49,593.97 C1938.29,593.97 1920.6,593.97 1907.27,593.97 " fill="none" id="SystemPatterns-GMN52" style="stroke:#181818;stroke-width:1.0;stroke-dasharray:7.0,7.0;"/></g><!--link UserPatters to GMN56--><g id="link_UserPatters_GMN56"><path d="M2105.49,593.97 C2102.29,593.97 2084.6,593.97 2071.27,593.97 " fill="none" id="UserPatters-GMN56" style="stroke:#181818;stroke-width:1.0;stroke-dasharray:7.0,7.0;"/></g><!--link AIAnomalyDetector to GMN60--><g id="link_AIAnomalyDetector_GMN60"><path d="M3343.37,593.97 C3340.44,593.97 3327.59,593.97 3309.37,593.97 " fill="none" id="AIAnomalyDetector-GMN60" style="stroke:#181818;stroke-width:1.0;stroke-dasharray:7.0,7.0;"/></g><!--link CheckingQuizAnswersofAIUsing to GMN64--><g id="link_CheckingQuizAnswersofAIUsing_GMN64"><path d="M2887.34,593.97 C2884.32,593.97 2871.1,593.97 2853.46,593.97 " fill="none" id="CheckingQuizAnswersofAIUsing-GMN64" style="stroke:#181818;stroke-width:1.0;stroke-dasharray:7.0,7.0;"/></g><!--link DataDistributor to RuleBasedAnomalyDetector--><g id="link_DataDistributor_RuleBasedAnomalyDetector"><path d="M2488.3455,347.4144 C2488.2689,347.9188 2488.1886,348.4245 2488.1045,348.9312 C2487.7683,350.958 2487.3713,353.0011 2486.9044,355.0417 C2485.9706,359.1228 2484.7575,363.1935 2483.1925,367.1023 C2480.0625,374.92 2475.525,382.09 2469,387.4 C2455.88,398.08 1877.62,417.24 1861,420.4 C1742.95,442.885 1614.79,485.53 1515.6038,522.7987 C1490.8072,532.1159 1467.8215,541.0971 1447.2573,549.3433 C1436.9752,553.4663 1427.2985,557.4057 1418.3036,561.1114 C1413.8061,562.9642 1415.0166,562.4488 1410.8695,564.1786 " fill="none" id="DataDistributor-to-RuleBasedAnomalyDetector" style="stroke:#181818;stroke-width:1.0;"/><polygon fill="#181818" points="1405.3319,566.4884,1415.1782,566.7155,1409.9466,564.5636,1412.0985,559.332,1405.3319,566.4884" style="stroke:#181818;stroke-width:1.0;"/><text fill="#000000" font-family="sans-serif" font-size="13" lengthAdjust="spacing" textLength="66" x="2391" y="408.4669">JSON Logs</text></g><!--link DataDistributor to MLAnomalyDetector--><g id="link_DataDistributor_MLAnomalyDetector"><path d="M2489,347.5904 C2489,350.589 2489,353.7349 2489,357.0117 C2489,383.2266 2489,417.8219 2489,452.4163 C2489,461.0648 2489,469.7134 2489,478.2309 C2489,478.4971 2489,472.7631 2489,473.029 " fill="none" id="DataDistributor-to-MLAnomalyDetector" style="stroke:#181818;stroke-width:1.0;"/><polygon fill="#181818" points="2489,479.029,2493,470.029,2489,474.029,2485,470.029,2489,479.029" style="stroke:#181818;stroke-width:1.0;"/><text fill="#000000" font-family="sans-serif" font-size="13" lengthAdjust="spacing" textLength="66" x="2490" y="408.4669">JSON Logs</text></g><!--link DataDistributor to AIAnomalyDetector--><g id="link_DataDistributor_AIAnomalyDetector"><path d="M2497.5515,312.3111 C2498.2488,312.3507 2498.9869,312.3928 2499.765,312.4374 C2505.9905,312.7937 2514.7825,313.3058 2525.7892,313.9699 C2547.8027,315.2981 2578.675,317.2341 2615.5919,319.7463 C2689.4256,324.7706 2787.4375,332.1 2887.1125,341.4825 C3086.4625,360.2475 3292.465,387.225 3325,420.4 C3351.59,447.515 3356.6075,489.7425 3354.8475,525.6375 C3354.4075,534.6113 3353.5439,543.1892 3352.4879,551.0363 C3352.3559,552.0172 3353.0742,547.0477 3352.9367,548.0051 " fill="none" id="DataDistributor-to-AIAnomalyDetector" style="stroke:#181818;stroke-width:1.0;"/><polygon fill="#181818" points="3352.0833,553.9441,3357.3227,545.6045,3352.7944,548.9949,3349.404,544.4667,3352.0833,553.9441" style="stroke:#181818;stroke-width:1.0;"/><text fill="#000000" font-family="sans-serif" font-size="13" lengthAdjust="spacing" textLength="66" x="3306" y="408.4669">JSON Logs</text></g><!--link RuleBasedAnomalyDetector to ResultAggregator--><g id="link_RuleBasedAnomalyDetector_ResultAggregator"><path d="M1753.3899,672.1599 C1754.321,672.299 1755.2519,672.4377 1756.1829,672.5761 C1758.0447,672.853 1759.9064,673.1284 1761.7677,673.4024 C1765.4903,673.9504 1769.2114,674.4926 1772.9297,675.0288 C1802.6767,679.3183 1832.2488,683.2175 1861,686.53 C1869.42,687.5 2463.55,714.05 2470,719.53 C2477.3875,725.8075 2482.2894,734.2381 2485.4817,743.382 C2485.5316,743.5249 2483.637,737.9916 2483.6861,738.1348 " fill="none" id="RuleBasedAnomalyDetector-to-ResultAggregator" style="stroke:#181818;stroke-width:1.0;"/><polygon fill="#181818" points="2485.6301,743.8112,2486.4983,734.0007,2484.0101,739.0809,2478.9298,736.5927,2485.6301,743.8112" style="stroke:#181818;stroke-width:1.0;"/><text fill="#000000" font-family="sans-serif" font-size="13" lengthAdjust="spacing" textLength="104" x="2353" y="707.5969">Anomalie-Daten</text></g><!--link MLAnomalyDetector to ResultAggregator--><g id="link_MLAnomalyDetector_ResultAggregator"><path d="M2489,670.9597 C2489,671.345 2489,671.7309 2489,672.1173 C2489,675.2088 2489,678.3354 2489,681.4854 C2489,687.7854 2489,694.1791 2489,700.5725 C2489,713.3594 2489,726.1455 2489,738.1804 C2489,739.6847 2489,741.1773 2489,742.6568 C2489,743.0266 2489,737.3956 2489,737.7638 " fill="none" id="MLAnomalyDetector-to-ResultAggregator" style="stroke:#181818;stroke-width:1.0;"/><polygon fill="#181818" points="2489,743.7638,2493,734.7638,2489,738.7638,2485,734.7638,2489,743.7638" style="stroke:#181818;stroke-width:1.0;"/><text fill="#000000" font-family="sans-serif" font-size="13" lengthAdjust="spacing" textLength="104" x="2490" y="707.5969">Anomalie-Daten</text></g><!--link AIAnomalyDetector to ResultAggregator--><g id="link_AIAnomalyDetector_ResultAggregator"><path d="M3336.4337,670.8712 C3336.3626,671.0132 3336.291,671.155 3336.2189,671.2966 C3335.6421,672.4287 3335.0336,673.5422 3334.392,674.6343 C3331.8253,679.0028 3328.7275,683.0288 3325,686.53 C3257.14,750.275 3050.8625,780.2 2860.205,794.1725 C2764.8763,801.1588 2673.4525,804.1569 2605.1884,805.4003 C2571.0564,806.022 2542.7143,806.2051 2522.5689,806.2286 C2512.4963,806.2404 2504.4728,806.2123 2498.7993,806.1792 C2498.4448,806.1772 2504.0992,806.2125 2503.7631,806.2104 " fill="none" id="AIAnomalyDetector-to-ResultAggregator" style="stroke:#181818;stroke-width:1.0;"/><polygon fill="#181818" points="2497.7632,806.173,2506.7381,810.2291,2502.7631,806.2042,2506.788,802.2292,2497.7632,806.173" style="stroke:#181818;stroke-width:1.0;"/><text fill="#000000" font-family="sans-serif" font-size="13" lengthAdjust="spacing" textLength="104" x="3306" y="707.5969">Anomalie-Daten</text></g><!--link ResultAggregator to GMN74--><g id="link_ResultAggregator_GMN74"><path d="M2488.32,807.1 C2485.18,807.1 2471.51,807.1 2453.77,807.1 " fill="none" id="ResultAggregator-GMN74" style="stroke:#181818;stroke-width:1.0;stroke-dasharray:7.0,7.0;"/></g><!--link ResultAggregator to Output--><g id="link_ResultAggregator_Output"><path d="M2489,852.2003 C2489,854.9225 2489,857.7298 2489,860.6101 C2489,866.3708 2489,872.4232 2489,878.6702 C2489,891.1642 2489,904.4363 2489,917.7075 C2489,930.9788 2489,944.2492 2489,956.7401 C2489,959.8628 2489,962.9368 2489,965.9499 C2489,967.4564 2489,968.9477 2489,970.4223 C2489,971.1596 2489,965.8927 2489,966.6214 " fill="none" id="ResultAggregator-to-Output" style="stroke:#181818;stroke-width:1.0;"/><polygon fill="#181818" points="2489,972.6214,2493,963.6214,2489,967.6214,2485,963.6214,2489,972.6214" style="stroke:#181818;stroke-width:1.0;"/><text fill="#000000" font-family="sans-serif" font-size="13" lengthAdjust="spacing" textLength="118" x="2490" y="944.7369">Aggregierte Daten</text></g><!--link Output to GMN79--><g id="link_Output_GMN79"><path d="M2488.34,1028.23 C2485.3,1028.23 2472.02,1028.23 2453.91,1028.23 " fill="none" id="Output-GMN79" style="stroke:#181818;stroke-width:1.0;stroke-dasharray:7.0,7.0;"/></g><!--SRC=[pLTBRjim4Dtx58EiqeLwW2uAA9-sRkD4pQz0WoneQoGJeKc1dxXsuTla6DtbOgKaVoIAikmqBQg5OKjlnczctWn76Haza1JXu4oa44anGgKeJ-5gfZHE3k1d3-nLV6Ghw7VaMXBMvuc896OhK7wDn2GJt3ul74P4AfJLv_d5XKQGD1rh40ciOJLC0AUJB7b-uga6msDuH4da4Ab6dLie1_oDy1XP-GWeXyzN5-TW9ZKKMZVvNwzlBdoilnew3xcQebHkR4tk3dZd26AA478z5L8Z1sAIuiuNHemoCf4soVol1VZ1Q2CnhvtQ7bm5-Fy6velmX6XoGfMMT6YqQCYl6QbZq407S8is86ffMiEffKDj6rYhF4OEIFaS6KSOYDWmR9Ytqgz7iTXqsjswAUuX2Dx3dSFmlaGvycl3rflt6fMs3HxH31dbMCtEbY-Lz5xQ68-8mZZaOaBOx0GrZZnvhkUupSgHGoIVVoLBDQHevGAFGiQOK4xp4i2blSVuTdNKYBlg9qfVppARW6vPRB0UHPpA1-JSs4dvA3YeqPWZOoZXrCB9S0SHr7NiqBmY4_n4P3mb4hk9Lj6TL5E6T3IsJ5ijzgDwEoXBIGNlPbe1TnAz7GJdHi-D9_txCJmtao7AYyGsHSR8J7NJT2ssSerjBaC-9sDMV6srsO5qxSTTMyii-tmZptjuLyxDnidOvQEgd9TxgLJrvKxSdDSz-TFaFU06PtiDfWRScKYv1hL51NQwsnO_n3SmDtd5SoEAkDB1osTIkMf5H6kKV0Trrl4URVwnz2haRkmXLFxL3imgu5UWvQrksD-hkWsujxhu8q-bNLJwS3X_U_GMZiT4VuokNxtKnsCSFTYEhPpS8WdxDsgd0scRzRyOKOjD6pQsZBA9stlSDnPQd3GwSY_hHiLR1adNFBf4PPWEqrHYIfPkLae8Yjrluyh3U6yV7jxx-5ZMfhgdEOPLVJcxcOFiRJHKtinthpRY0HoXBBT_kwKHXbPtAGuvLGhpDu2ULrnBkfxeYg0lZCwCBa9T4rXkt8quIsnxTENpNct7V5BMj8XAv0sXid8dAbzWDlnRkIz-0m00]--></g></svg>